<svg width="524" height="524" viewBox="0 0 524 524" fill="none" xmlns="http://www.w3.org/2000/svg">
<path d="M524 262C524 406.699 406.699 524 262 524C117.301 524 0 406.699 0 262C0 117.301 117.301 0 262 0C406.699 0 524 117.301 524 262Z" fill="#EAE8DB"/>
<path d="M23.3324 262V177.636H79.1903V192.342H41.169V212.445H75.483V227.151H41.169V262H23.3324Z" fill="#F25C2D"/>
<path d="M108.407 177.636V262H90.8583V177.636H108.407Z" fill="#F25C2D"/>
<path d="M151.052 263.236C144.653 263.236 139.12 261.876 134.451 259.158C129.81 256.411 126.226 252.594 123.7 247.706C121.173 242.79 119.91 237.092 119.91 230.611C119.91 224.075 121.173 218.363 123.7 213.474C126.226 208.559 129.81 204.741 134.451 202.023C139.12 199.277 144.653 197.903 151.052 197.903C157.451 197.903 162.97 199.277 167.612 202.023C172.28 204.741 175.878 208.559 178.404 213.474C180.931 218.363 182.194 224.075 182.194 230.611C182.194 237.092 180.931 242.79 178.404 247.706C175.878 252.594 172.28 256.411 167.612 259.158C162.97 261.876 157.451 263.236 151.052 263.236ZM151.134 249.642C154.045 249.642 156.476 248.818 158.425 247.17C160.375 245.495 161.844 243.216 162.833 240.332C163.849 237.449 164.357 234.167 164.357 230.487C164.357 226.807 163.849 223.526 162.833 220.642C161.844 217.759 160.375 215.479 158.425 213.804C156.476 212.129 154.045 211.291 151.134 211.291C148.196 211.291 145.724 212.129 143.719 213.804C141.742 215.479 140.245 217.759 139.229 220.642C138.241 223.526 137.746 226.807 137.746 230.487C137.746 234.167 138.241 237.449 139.229 240.332C140.245 243.216 141.742 245.495 143.719 247.17C145.724 248.818 148.196 249.642 151.134 249.642Z" fill="#F25C2D"/>
<path d="M193.604 262V198.727H210.617V209.767H211.276C212.43 205.84 214.366 202.874 217.085 200.869C219.803 198.837 222.934 197.821 226.477 197.821C227.355 197.821 228.303 197.876 229.319 197.986C230.335 198.096 231.228 198.247 231.996 198.439V214.01C231.173 213.763 230.033 213.543 228.577 213.351C227.122 213.159 225.79 213.062 224.582 213.062C222 213.062 219.693 213.625 217.661 214.751C215.656 215.85 214.064 217.388 212.883 219.365C211.729 221.342 211.153 223.622 211.153 226.203V262H193.604Z" fill="#F25C2D"/>
<path d="M241.069 262V198.727H258.618V262H241.069ZM249.885 190.571C247.276 190.571 245.038 189.706 243.17 187.976C241.33 186.218 240.41 184.117 240.41 181.673C240.41 179.257 241.33 177.183 243.17 175.453C245.038 173.696 247.276 172.817 249.885 172.817C252.493 172.817 254.718 173.696 256.558 175.453C258.425 177.183 259.359 179.257 259.359 181.673C259.359 184.117 258.425 186.218 256.558 187.976C254.718 189.706 252.493 190.571 249.885 190.571Z" fill="#F25C2D"/>
<path d="M272.675 285.727V198.727H289.976V209.355H290.759C291.527 207.652 292.64 205.922 294.095 204.165C295.578 202.38 297.5 200.897 299.862 199.716C302.251 198.508 305.217 197.903 308.76 197.903C313.374 197.903 317.63 199.112 321.53 201.528C325.429 203.918 328.546 207.529 330.881 212.362C333.215 217.168 334.382 223.196 334.382 230.446C334.382 237.504 333.242 243.463 330.963 248.324C328.711 253.157 325.635 256.823 321.736 259.322C317.864 261.794 313.525 263.03 308.719 263.03C305.313 263.03 302.416 262.467 300.027 261.341C297.665 260.215 295.729 258.801 294.219 257.098C292.708 255.368 291.555 253.624 290.759 251.866H290.223V285.727H272.675ZM289.852 230.364C289.852 234.126 290.374 237.408 291.418 240.209C292.461 243.01 293.972 245.193 295.949 246.759C297.926 248.296 300.329 249.065 303.158 249.065C306.014 249.065 308.43 248.283 310.408 246.717C312.385 245.125 313.882 242.928 314.898 240.126C315.941 237.298 316.463 234.044 316.463 230.364C316.463 226.711 315.955 223.498 314.939 220.724C313.923 217.951 312.426 215.781 310.449 214.216C308.472 212.651 306.041 211.868 303.158 211.868C300.302 211.868 297.885 212.623 295.908 214.134C293.958 215.644 292.461 217.786 291.418 220.56C290.374 223.333 289.852 226.601 289.852 230.364Z" fill="#F25C2D"/>
<path d="M364.124 263.195C360.087 263.195 356.489 262.494 353.331 261.094C350.173 259.666 347.674 257.565 345.834 254.791C344.021 251.99 343.115 248.502 343.115 244.328C343.115 240.813 343.76 237.861 345.051 235.472C346.342 233.082 348.099 231.16 350.324 229.705C352.548 228.249 355.075 227.151 357.903 226.409C360.759 225.668 363.753 225.146 366.884 224.844C370.563 224.459 373.529 224.102 375.781 223.773C378.033 223.416 379.667 222.894 380.683 222.207C381.699 221.521 382.207 220.505 382.207 219.159V218.912C382.207 216.303 381.384 214.285 379.736 212.857C378.116 211.429 375.809 210.714 372.815 210.714C369.657 210.714 367.144 211.415 365.277 212.815C363.41 214.188 362.174 215.919 361.57 218.006L345.339 216.688C346.163 212.843 347.784 209.52 350.2 206.719C352.617 203.89 355.734 201.721 359.551 200.21C363.396 198.672 367.845 197.903 372.898 197.903C376.413 197.903 379.777 198.315 382.99 199.139C386.231 199.963 389.1 201.24 391.599 202.97C394.126 204.7 396.117 206.925 397.572 209.643C399.028 212.335 399.756 215.562 399.756 219.324V262H383.114V253.226H382.619C381.603 255.203 380.244 256.947 378.541 258.457C376.839 259.94 374.793 261.107 372.403 261.959C370.014 262.783 367.254 263.195 364.124 263.195ZM369.149 251.084C371.731 251.084 374.01 250.576 375.987 249.56C377.964 248.516 379.516 247.116 380.642 245.358C381.768 243.6 382.331 241.609 382.331 239.385V232.67C381.782 233.027 381.027 233.357 380.065 233.659C379.132 233.934 378.074 234.195 376.893 234.442C375.713 234.661 374.532 234.867 373.351 235.06C372.17 235.224 371.099 235.375 370.138 235.513C368.078 235.815 366.279 236.295 364.741 236.955C363.204 237.614 362.009 238.506 361.158 239.632C360.306 240.731 359.881 242.104 359.881 243.751C359.881 246.141 360.746 247.967 362.476 249.23C364.233 250.466 366.458 251.084 369.149 251.084Z" fill="#F25C2D"/>
<path d="M465.263 257.428V199.098H480.01V257.428H465.263ZM443.472 235.636V220.889H501.801V235.636H443.472Z" fill="#F25C2D"/>
<path d="M69.098 303.899C68.7685 300.576 67.3542 297.995 64.8551 296.155C62.3561 294.315 58.9645 293.395 54.6804 293.395C51.7694 293.395 49.3116 293.807 47.3068 294.631C45.3021 295.427 43.7642 296.539 42.6932 297.967C41.6496 299.395 41.1278 301.016 41.1278 302.828C41.0729 304.339 41.3887 305.657 42.0753 306.783C42.7893 307.909 43.7642 308.884 45 309.707C46.2358 310.504 47.6638 311.204 49.2841 311.808C50.9044 312.385 52.6345 312.879 54.4744 313.291L62.054 315.104C65.7339 315.928 69.1117 317.026 72.1875 318.399C75.2633 319.772 77.9271 321.461 80.179 323.466C82.4309 325.471 84.1747 327.832 85.4105 330.551C86.6738 333.27 87.3191 336.387 87.3466 339.902C87.3191 345.065 86.001 349.541 83.3921 353.331C80.8106 357.093 77.0758 360.018 72.1875 362.105C67.3267 364.165 61.4635 365.195 54.598 365.195C47.7874 365.195 41.8556 364.151 36.8026 362.064C31.777 359.977 27.8499 356.887 25.0213 352.795C22.2202 348.676 20.7509 343.582 20.6136 337.513H37.8736C38.0658 340.341 38.8759 342.703 40.304 344.598C41.7595 346.465 43.6956 347.88 46.1122 348.841C48.5563 349.775 51.3163 350.241 54.392 350.241C57.4129 350.241 60.0355 349.802 62.2599 348.923C64.5118 348.045 66.2557 346.822 67.4915 345.257C68.7273 343.692 69.3452 341.893 69.3452 339.861C69.3452 337.966 68.7822 336.373 67.6562 335.082C66.5578 333.792 64.9375 332.693 62.7955 331.787C60.6809 330.881 58.0857 330.057 55.0099 329.315L45.8239 327.009C38.7112 325.278 33.0952 322.573 28.9759 318.893C24.8565 315.214 22.8106 310.257 22.8381 304.023C22.8106 298.915 24.17 294.452 26.9162 290.635C29.6899 286.818 33.4934 283.838 38.3267 281.696C43.16 279.554 48.6525 278.483 54.804 278.483C61.0653 278.483 66.5303 279.554 71.1989 281.696C75.8949 283.838 79.5474 286.818 82.1562 290.635C84.7652 294.452 86.1108 298.874 86.1932 303.899H69.098Z" fill="#F25C2D"/>
<path d="M127.603 365.236C121.204 365.236 115.67 363.876 111.002 361.158C106.361 358.411 102.777 354.594 100.25 349.706C97.7238 344.79 96.4606 339.092 96.4606 332.611C96.4606 326.075 97.7238 320.363 100.25 315.474C102.777 310.559 106.361 306.741 111.002 304.023C115.67 301.277 121.204 299.903 127.603 299.903C134.001 299.903 139.521 301.277 144.162 304.023C148.831 306.741 152.428 310.559 154.955 315.474C157.481 320.363 158.745 326.075 158.745 332.611C158.745 339.092 157.481 344.79 154.955 349.706C152.428 354.594 148.831 358.411 144.162 361.158C139.521 363.876 134.001 365.236 127.603 365.236ZM127.685 351.642C130.596 351.642 133.026 350.818 134.976 349.17C136.926 347.495 138.395 345.216 139.384 342.332C140.4 339.449 140.908 336.167 140.908 332.487C140.908 328.807 140.4 325.526 139.384 322.642C138.395 319.759 136.926 317.479 134.976 315.804C133.026 314.129 130.596 313.291 127.685 313.291C124.747 313.291 122.275 314.129 120.27 315.804C118.293 317.479 116.796 319.759 115.78 322.642C114.792 325.526 114.297 328.807 114.297 332.487C114.297 336.167 114.792 339.449 115.78 342.332C116.796 345.216 118.293 347.495 120.27 349.17C122.275 350.818 124.747 351.642 127.685 351.642Z" fill="#F25C2D"/>
<path d="M198.743 365.236C192.262 365.236 186.687 363.863 182.019 361.116C177.378 358.343 173.808 354.498 171.309 349.582C168.837 344.667 167.601 339.009 167.601 332.611C167.601 326.13 168.851 320.445 171.35 315.557C173.876 310.641 177.46 306.81 182.101 304.064C186.742 301.29 192.262 299.903 198.661 299.903C204.181 299.903 209.014 300.906 213.161 302.91C217.308 304.915 220.589 307.73 223.006 311.355C225.423 314.98 226.755 319.237 227.002 324.125H210.442C209.975 320.967 208.739 318.427 206.735 316.504C204.757 314.554 202.162 313.58 198.949 313.58C196.23 313.58 193.855 314.321 191.823 315.804C189.818 317.259 188.253 319.388 187.127 322.189C186.001 324.99 185.438 328.382 185.438 332.364C185.438 336.401 185.987 339.833 187.086 342.662C188.212 345.491 189.791 347.646 191.823 349.129C193.855 350.612 196.23 351.354 198.949 351.354C200.954 351.354 202.753 350.942 204.346 350.118C205.966 349.294 207.298 348.099 208.341 346.534C209.412 344.941 210.113 343.033 210.442 340.808H227.002C226.727 345.642 225.409 349.898 223.047 353.578C220.713 357.231 217.486 360.087 213.367 362.146C209.248 364.206 204.373 365.236 198.743 365.236Z" fill="#F25C2D"/>
<path d="M238.237 364V300.727H255.786V364H238.237ZM247.053 292.571C244.444 292.571 242.205 291.706 240.338 289.976C238.498 288.218 237.578 286.117 237.578 283.673C237.578 281.257 238.498 279.183 240.338 277.453C242.205 275.696 244.444 274.817 247.053 274.817C249.661 274.817 251.886 275.696 253.726 277.453C255.593 279.183 256.527 281.257 256.527 283.673C256.527 286.117 255.593 288.218 253.726 289.976C251.886 291.706 249.661 292.571 247.053 292.571Z" fill="#F25C2D"/>
<path d="M287.885 365.195C283.848 365.195 280.251 364.494 277.093 363.094C273.935 361.666 271.435 359.565 269.596 356.791C267.783 353.99 266.877 350.502 266.877 346.328C266.877 342.813 267.522 339.861 268.813 337.472C270.104 335.082 271.861 333.16 274.086 331.705C276.31 330.249 278.837 329.151 281.665 328.409C284.521 327.668 287.515 327.146 290.645 326.844C294.325 326.459 297.291 326.102 299.543 325.773C301.795 325.416 303.429 324.894 304.445 324.207C305.461 323.521 305.969 322.505 305.969 321.159V320.912C305.969 318.303 305.145 316.285 303.498 314.857C301.877 313.429 299.57 312.714 296.577 312.714C293.419 312.714 290.906 313.415 289.039 314.815C287.171 316.188 285.935 317.919 285.331 320.006L269.101 318.688C269.925 314.843 271.545 311.52 273.962 308.719C276.379 305.89 279.496 303.721 283.313 302.21C287.158 300.672 291.606 299.903 296.659 299.903C300.175 299.903 303.539 300.315 306.752 301.139C309.992 301.963 312.862 303.24 315.361 304.97C317.888 306.7 319.879 308.925 321.334 311.643C322.79 314.335 323.517 317.562 323.517 321.324V364H306.875V355.226H306.381C305.365 357.203 304.006 358.947 302.303 360.457C300.6 361.94 298.554 363.107 296.165 363.959C293.776 364.783 291.016 365.195 287.885 365.195ZM292.911 353.084C295.492 353.084 297.772 352.576 299.749 351.56C301.726 350.516 303.278 349.116 304.404 347.358C305.53 345.6 306.093 343.609 306.093 341.385V334.67C305.543 335.027 304.788 335.357 303.827 335.659C302.893 335.934 301.836 336.195 300.655 336.442C299.474 336.661 298.293 336.867 297.113 337.06C295.932 337.224 294.861 337.375 293.9 337.513C291.84 337.815 290.041 338.295 288.503 338.955C286.965 339.614 285.771 340.506 284.919 341.632C284.068 342.731 283.642 344.104 283.642 345.751C283.642 348.141 284.507 349.967 286.238 351.23C287.995 352.466 290.22 353.084 292.911 353.084Z" fill="#F25C2D"/>
<path d="M354.68 279.636V364H337.132V279.636H354.68Z" fill="#F25C2D"/>
</svg>
