<svg width="1440" height="1024" viewBox="0 0 1440 1024" fill="none" xmlns="http://www.w3.org/2000/svg">
<rect width="1440" height="1024" fill="#D7DDDC"/>
<g filter="url(#filter0_d_176_1010)">
<rect width="752" height="93.4173" rx="46.7086" transform="matrix(1 0 0 -1 344 482.417)" fill="#2C9C22"/>
</g>
<path d="M570.863 436.352C570.863 435.737 570.766 435.195 570.574 434.726C570.393 434.244 570.068 433.81 569.598 433.425C569.14 433.039 568.502 432.672 567.683 432.323C566.876 431.973 565.852 431.618 564.612 431.257C563.311 430.871 562.137 430.444 561.089 429.974C560.041 429.492 559.144 428.944 558.397 428.33C557.65 427.716 557.078 427.011 556.681 426.216C556.283 425.421 556.084 424.512 556.084 423.488C556.084 422.465 556.295 421.519 556.717 420.652C557.138 419.785 557.741 419.032 558.523 418.394C559.318 417.743 560.264 417.237 561.36 416.876C562.456 416.515 563.678 416.334 565.027 416.334C567.003 416.334 568.677 416.713 570.05 417.472C571.435 418.219 572.489 419.201 573.211 420.417C573.934 421.621 574.295 422.91 574.295 424.283H570.827C570.827 423.296 570.616 422.422 570.194 421.664C569.773 420.893 569.134 420.291 568.279 419.857C567.424 419.411 566.34 419.188 565.027 419.188C563.787 419.188 562.763 419.375 561.956 419.749C561.149 420.122 560.547 420.628 560.149 421.266C559.764 421.904 559.571 422.633 559.571 423.452C559.571 424.006 559.686 424.512 559.915 424.97C560.155 425.415 560.523 425.831 561.017 426.216C561.522 426.602 562.161 426.957 562.932 427.282C563.715 427.607 564.648 427.921 565.732 428.222C567.225 428.643 568.514 429.113 569.598 429.631C570.682 430.149 571.573 430.733 572.272 431.383C572.983 432.022 573.507 432.75 573.844 433.569C574.193 434.376 574.368 435.292 574.368 436.315C574.368 437.387 574.151 438.357 573.717 439.224C573.284 440.091 572.663 440.832 571.856 441.446C571.049 442.061 570.08 442.536 568.948 442.874C567.828 443.199 566.575 443.361 565.19 443.361C563.973 443.361 562.775 443.193 561.595 442.855C560.426 442.518 559.361 442.012 558.397 441.338C557.445 440.663 556.681 439.832 556.103 438.845C555.536 437.845 555.253 436.689 555.253 435.376H558.722C558.722 436.279 558.897 437.056 559.246 437.707C559.595 438.345 560.071 438.875 560.673 439.296C561.288 439.718 561.98 440.031 562.751 440.236C563.534 440.429 564.347 440.525 565.19 440.525C566.406 440.525 567.436 440.356 568.279 440.019C569.122 439.682 569.761 439.2 570.194 438.574C570.64 437.947 570.863 437.207 570.863 436.352ZM586.418 443.361C585.057 443.361 583.822 443.132 582.714 442.675C581.618 442.205 580.673 441.549 579.878 440.706C579.095 439.862 578.493 438.863 578.071 437.707C577.65 436.55 577.439 435.286 577.439 433.913V433.154C577.439 431.564 577.674 430.149 578.144 428.908C578.613 427.656 579.252 426.596 580.059 425.729C580.866 424.861 581.781 424.205 582.805 423.759C583.828 423.314 584.888 423.091 585.984 423.091C587.382 423.091 588.586 423.332 589.598 423.813C590.621 424.295 591.458 424.97 592.109 425.837C592.759 426.692 593.241 427.704 593.554 428.872C593.867 430.028 594.024 431.293 594.024 432.666V434.166H579.426V431.438H590.682V431.185C590.633 430.317 590.453 429.474 590.14 428.655C589.839 427.836 589.357 427.162 588.694 426.632C588.032 426.102 587.129 425.837 585.984 425.837C585.226 425.837 584.527 426 583.889 426.325C583.25 426.638 582.702 427.108 582.245 427.734C581.787 428.36 581.432 429.125 581.179 430.028C580.926 430.932 580.799 431.973 580.799 433.154V433.913C580.799 434.84 580.926 435.713 581.179 436.532C581.444 437.339 581.823 438.05 582.317 438.664C582.823 439.278 583.431 439.76 584.142 440.109C584.864 440.459 585.683 440.633 586.599 440.633C587.779 440.633 588.779 440.392 589.598 439.911C590.417 439.429 591.133 438.785 591.748 437.978L593.771 439.585C593.349 440.224 592.813 440.832 592.163 441.41C591.513 441.988 590.712 442.458 589.76 442.819C588.821 443.181 587.707 443.361 586.418 443.361ZM598.017 423.452H601.377V445.331C601.377 446.523 601.184 447.535 600.799 448.366C600.425 449.197 599.859 449.823 599.101 450.245C598.354 450.678 597.408 450.895 596.264 450.895C595.963 450.895 595.614 450.865 595.216 450.805C594.807 450.744 594.464 450.672 594.187 450.588L594.205 447.896C594.433 447.944 594.692 447.98 594.981 448.004C595.271 448.041 595.523 448.059 595.74 448.059C596.234 448.059 596.65 447.968 596.987 447.788C597.324 447.607 597.577 447.318 597.746 446.92C597.926 446.523 598.017 445.993 598.017 445.331V423.452ZM597.673 418.267C597.673 417.725 597.842 417.267 598.179 416.894C598.516 416.521 599.004 416.334 599.643 416.334C600.293 416.334 600.787 416.521 601.124 416.894C601.461 417.267 601.63 417.725 601.63 418.267C601.63 418.785 601.461 419.231 601.124 419.604C600.787 419.965 600.293 420.146 599.643 420.146C599.004 420.146 598.516 419.965 598.179 419.604C597.842 419.231 597.673 418.785 597.673 418.267ZM618.305 439.658V429.595C618.305 428.824 618.149 428.155 617.835 427.589C617.534 427.011 617.077 426.566 616.462 426.252C615.848 425.939 615.089 425.783 614.186 425.783C613.343 425.783 612.602 425.927 611.964 426.216C611.338 426.505 610.844 426.885 610.482 427.354C610.133 427.824 609.958 428.33 609.958 428.872H606.616C606.616 428.174 606.797 427.481 607.158 426.794C607.52 426.108 608.037 425.488 608.712 424.934C609.398 424.368 610.217 423.922 611.169 423.597C612.132 423.259 613.204 423.091 614.385 423.091C615.806 423.091 617.059 423.332 618.143 423.813C619.239 424.295 620.094 425.024 620.708 426C621.334 426.963 621.647 428.174 621.647 429.631V438.736C621.647 439.387 621.702 440.079 621.81 440.814C621.931 441.549 622.105 442.181 622.334 442.711V443H618.847C618.679 442.615 618.546 442.103 618.45 441.464C618.353 440.814 618.305 440.212 618.305 439.658ZM618.883 431.148L618.919 433.497H615.541C614.59 433.497 613.74 433.575 612.994 433.732C612.247 433.876 611.621 434.099 611.115 434.4C610.609 434.701 610.223 435.081 609.958 435.539C609.694 435.984 609.561 436.508 609.561 437.11C609.561 437.725 609.7 438.285 609.977 438.791C610.254 439.296 610.669 439.7 611.223 440.001C611.789 440.29 612.482 440.435 613.301 440.435C614.325 440.435 615.228 440.218 616.011 439.784C616.794 439.351 617.414 438.821 617.872 438.194C618.341 437.568 618.594 436.96 618.63 436.37L620.058 437.978C619.973 438.483 619.744 439.043 619.371 439.658C618.998 440.272 618.498 440.862 617.872 441.428C617.257 441.982 616.523 442.446 615.667 442.819C614.824 443.181 613.873 443.361 612.813 443.361C611.488 443.361 610.326 443.102 609.326 442.584C608.339 442.067 607.568 441.374 607.014 440.507C606.472 439.628 606.201 438.646 606.201 437.562C606.201 436.514 606.405 435.593 606.815 434.798C607.224 433.991 607.815 433.322 608.585 432.792C609.356 432.25 610.284 431.841 611.368 431.564C612.452 431.287 613.662 431.148 614.999 431.148H618.883ZM648.042 438.483V423.452H651.403V443H648.205L648.042 438.483ZM648.675 434.364L650.066 434.328C650.066 435.629 649.927 436.833 649.65 437.941C649.385 439.037 648.952 439.989 648.35 440.796C647.747 441.603 646.958 442.235 645.983 442.693C645.007 443.139 643.821 443.361 642.424 443.361C641.472 443.361 640.599 443.223 639.804 442.946C639.021 442.669 638.347 442.241 637.781 441.663C637.215 441.085 636.775 440.332 636.462 439.405C636.161 438.477 636.01 437.363 636.01 436.062V423.452H639.353V436.099C639.353 436.978 639.449 437.707 639.642 438.285C639.846 438.851 640.117 439.302 640.455 439.64C640.804 439.965 641.189 440.194 641.611 440.326C642.044 440.459 642.49 440.525 642.948 440.525C644.369 440.525 645.495 440.254 646.326 439.712C647.157 439.158 647.753 438.417 648.115 437.49C648.488 436.55 648.675 435.508 648.675 434.364ZM659.822 427.336V443H656.461V423.452H659.641L659.822 427.336ZM659.135 432.485L657.582 432.431C657.594 431.094 657.768 429.86 658.105 428.728C658.443 427.583 658.943 426.59 659.605 425.747C660.267 424.903 661.092 424.253 662.08 423.795C663.068 423.326 664.212 423.091 665.513 423.091C666.428 423.091 667.271 423.223 668.042 423.488C668.813 423.741 669.481 424.145 670.047 424.699C670.613 425.253 671.053 425.963 671.366 426.831C671.679 427.698 671.836 428.746 671.836 429.974V443H668.494V430.137C668.494 429.113 668.319 428.294 667.97 427.68C667.632 427.065 667.151 426.62 666.524 426.343C665.898 426.054 665.163 425.909 664.32 425.909C663.333 425.909 662.508 426.084 661.845 426.433C661.183 426.782 660.653 427.264 660.255 427.878C659.858 428.493 659.569 429.197 659.388 429.992C659.22 430.775 659.135 431.606 659.135 432.485ZM671.8 430.643L669.56 431.329C669.572 430.257 669.746 429.227 670.083 428.24C670.433 427.252 670.933 426.373 671.583 425.602C672.245 424.831 673.058 424.223 674.022 423.777C674.986 423.32 676.088 423.091 677.328 423.091C678.376 423.091 679.303 423.229 680.11 423.506C680.929 423.783 681.616 424.211 682.17 424.789C682.736 425.355 683.164 426.084 683.453 426.975C683.742 427.866 683.886 428.926 683.886 430.155V443H680.526V430.119C680.526 429.023 680.351 428.174 680.002 427.571C679.665 426.957 679.183 426.529 678.557 426.289C677.942 426.036 677.208 425.909 676.353 425.909C675.618 425.909 674.967 426.036 674.401 426.289C673.835 426.542 673.36 426.891 672.974 427.336C672.589 427.77 672.294 428.27 672.089 428.836C671.896 429.402 671.8 430.004 671.8 430.643ZM697.237 433.443V433.027C697.237 431.618 697.442 430.311 697.852 429.107C698.261 427.89 698.851 426.837 699.622 425.945C700.393 425.042 701.326 424.343 702.422 423.85C703.518 423.344 704.747 423.091 706.108 423.091C707.481 423.091 708.715 423.344 709.812 423.85C710.92 424.343 711.859 425.042 712.63 425.945C713.413 426.837 714.009 427.89 714.418 429.107C714.828 430.311 715.033 431.618 715.033 433.027V433.443C715.033 434.852 714.828 436.159 714.418 437.363C714.009 438.568 713.413 439.622 712.63 440.525C711.859 441.416 710.926 442.115 709.83 442.621C708.746 443.114 707.517 443.361 706.144 443.361C704.771 443.361 703.536 443.114 702.44 442.621C701.344 442.115 700.405 441.416 699.622 440.525C698.851 439.622 698.261 438.568 697.852 437.363C697.442 436.159 697.237 434.852 697.237 433.443ZM700.58 433.027V433.443C700.58 434.418 700.694 435.34 700.923 436.207C701.152 437.062 701.495 437.821 701.953 438.483C702.422 439.146 703.007 439.67 703.705 440.055C704.404 440.429 705.217 440.615 706.144 440.615C707.059 440.615 707.86 440.429 708.547 440.055C709.245 439.67 709.824 439.146 710.281 438.483C710.739 437.821 711.082 437.062 711.311 436.207C711.552 435.34 711.672 434.418 711.672 433.443V433.027C711.672 432.064 711.552 431.154 711.311 430.299C711.082 429.432 710.733 428.667 710.263 428.005C709.806 427.33 709.227 426.8 708.529 426.415C707.842 426.03 707.035 425.837 706.108 425.837C705.193 425.837 704.386 426.03 703.687 426.415C703 426.8 702.422 427.33 701.953 428.005C701.495 428.667 701.152 429.432 700.923 430.299C700.694 431.154 700.58 432.064 700.58 433.027ZM722.566 426.523V443H719.224V423.452H722.476L722.566 426.523ZM728.673 423.344L728.655 426.451C728.378 426.391 728.113 426.355 727.86 426.343C727.619 426.319 727.342 426.307 727.029 426.307C726.258 426.307 725.577 426.427 724.987 426.668C724.397 426.909 723.897 427.246 723.488 427.68C723.078 428.113 722.753 428.631 722.512 429.233C722.283 429.824 722.133 430.474 722.061 431.185L721.121 431.727C721.121 430.546 721.236 429.438 721.464 428.402C721.705 427.367 722.073 426.451 722.566 425.656C723.06 424.849 723.687 424.223 724.445 423.777C725.216 423.32 726.132 423.091 727.191 423.091C727.432 423.091 727.709 423.121 728.022 423.181C728.336 423.229 728.552 423.284 728.673 423.344ZM744.065 423.452H747.101V442.584C747.101 444.307 746.751 445.776 746.053 446.993C745.354 448.209 744.379 449.131 743.126 449.757C741.885 450.395 740.452 450.714 738.826 450.714C738.152 450.714 737.357 450.606 736.441 450.389C735.538 450.184 734.647 449.829 733.768 449.323C732.9 448.829 732.172 448.161 731.582 447.318L733.334 445.331C734.153 446.318 735.008 447.005 735.899 447.39C736.803 447.776 737.694 447.968 738.573 447.968C739.633 447.968 740.549 447.77 741.319 447.372C742.09 446.975 742.686 446.384 743.108 445.602C743.542 444.831 743.758 443.879 743.758 442.747V427.752L744.065 423.452ZM730.606 433.443V433.063C730.606 431.57 730.781 430.215 731.13 428.999C731.491 427.77 732.003 426.716 732.666 425.837C733.34 424.958 734.153 424.283 735.104 423.813C736.056 423.332 737.128 423.091 738.32 423.091C739.549 423.091 740.621 423.308 741.536 423.741C742.464 424.163 743.246 424.783 743.885 425.602C744.535 426.409 745.047 427.385 745.42 428.529C745.794 429.673 746.053 430.968 746.197 432.413V434.075C746.065 435.508 745.806 436.797 745.42 437.941C745.047 439.086 744.535 440.061 743.885 440.868C743.246 441.675 742.464 442.295 741.536 442.729C740.609 443.151 739.525 443.361 738.284 443.361C737.116 443.361 736.056 443.114 735.104 442.621C734.165 442.127 733.358 441.434 732.684 440.543C732.009 439.652 731.491 438.604 731.13 437.399C730.781 436.183 730.606 434.864 730.606 433.443ZM733.948 433.063V433.443C733.948 434.418 734.045 435.334 734.237 436.189C734.442 437.044 734.749 437.797 735.159 438.447C735.58 439.098 736.116 439.61 736.767 439.983C737.417 440.344 738.194 440.525 739.097 440.525C740.205 440.525 741.121 440.29 741.843 439.82C742.566 439.351 743.138 438.73 743.56 437.959C743.993 437.189 744.33 436.352 744.571 435.448V431.094C744.439 430.432 744.234 429.793 743.957 429.179C743.692 428.553 743.343 427.999 742.909 427.517C742.488 427.023 741.964 426.632 741.337 426.343C740.711 426.054 739.976 425.909 739.133 425.909C738.218 425.909 737.429 426.102 736.767 426.487C736.116 426.861 735.58 427.379 735.159 428.041C734.749 428.691 734.442 429.45 734.237 430.317C734.045 431.173 733.948 432.088 733.948 433.063ZM763.704 439.658V429.595C763.704 428.824 763.547 428.155 763.234 427.589C762.933 427.011 762.475 426.566 761.861 426.252C761.247 425.939 760.488 425.783 759.584 425.783C758.741 425.783 758.001 425.927 757.362 426.216C756.736 426.505 756.242 426.885 755.881 427.354C755.532 427.824 755.357 428.33 755.357 428.872H752.015C752.015 428.174 752.195 427.481 752.557 426.794C752.918 426.108 753.436 425.488 754.11 424.934C754.797 424.368 755.616 423.922 756.567 423.597C757.531 423.259 758.603 423.091 759.783 423.091C761.204 423.091 762.457 423.332 763.541 423.813C764.637 424.295 765.492 425.024 766.106 426C766.733 426.963 767.046 428.174 767.046 429.631V438.736C767.046 439.387 767.1 440.079 767.208 440.814C767.329 441.549 767.504 442.181 767.732 442.711V443H764.246C764.077 442.615 763.944 442.103 763.848 441.464C763.752 440.814 763.704 440.212 763.704 439.658ZM764.282 431.148L764.318 433.497H760.939C759.988 433.497 759.139 433.575 758.392 433.732C757.645 433.876 757.019 434.099 756.513 434.4C756.007 434.701 755.622 435.081 755.357 435.539C755.092 435.984 754.959 436.508 754.959 437.11C754.959 437.725 755.098 438.285 755.375 438.791C755.652 439.296 756.068 439.7 756.622 440.001C757.188 440.29 757.88 440.435 758.699 440.435C759.723 440.435 760.626 440.218 761.409 439.784C762.192 439.351 762.812 438.821 763.27 438.194C763.74 437.568 763.993 436.96 764.029 436.37L765.456 437.978C765.372 438.483 765.143 439.043 764.77 439.658C764.396 440.272 763.896 440.862 763.27 441.428C762.656 441.982 761.921 442.446 761.066 442.819C760.223 443.181 759.271 443.361 758.211 443.361C756.887 443.361 755.724 443.102 754.725 442.584C753.737 442.067 752.966 441.374 752.412 440.507C751.87 439.628 751.599 438.646 751.599 437.562C751.599 436.514 751.804 435.593 752.213 434.798C752.623 433.991 753.213 433.322 753.984 432.792C754.755 432.25 755.682 431.841 756.766 431.564C757.85 431.287 759.061 431.148 760.397 431.148H764.282ZM775.646 427.625V443H772.303V423.452H775.465L775.646 427.625ZM774.851 432.485L773.459 432.431C773.472 431.094 773.67 429.86 774.056 428.728C774.441 427.583 774.983 426.59 775.682 425.747C776.38 424.903 777.211 424.253 778.175 423.795C779.15 423.326 780.228 423.091 781.409 423.091C782.372 423.091 783.239 423.223 784.01 423.488C784.781 423.741 785.438 424.151 785.979 424.717C786.534 425.283 786.955 426.018 787.244 426.921C787.533 427.812 787.678 428.902 787.678 430.191V443H784.317V430.155C784.317 429.131 784.167 428.312 783.866 427.698C783.565 427.071 783.125 426.62 782.547 426.343C781.969 426.054 781.258 425.909 780.415 425.909C779.584 425.909 778.825 426.084 778.139 426.433C777.464 426.782 776.88 427.264 776.386 427.878C775.904 428.493 775.525 429.197 775.248 429.992C774.983 430.775 774.851 431.606 774.851 432.485ZM796.386 423.452V443H793.025V423.452H796.386ZM792.772 418.267C792.772 417.725 792.935 417.267 793.26 416.894C793.597 416.521 794.091 416.334 794.742 416.334C795.38 416.334 795.868 416.521 796.205 416.894C796.554 417.267 796.729 417.725 796.729 418.267C796.729 418.785 796.554 419.231 796.205 419.604C795.868 419.965 795.38 420.146 794.742 420.146C794.091 420.146 793.597 419.965 793.26 419.604C792.935 419.231 792.772 418.785 792.772 418.267ZM816.313 440.254V443H802.095V440.254H816.313ZM815.789 425.819L802.854 443H800.812V440.543L813.657 423.452H815.789V425.819ZM814.308 423.452V426.216H800.957V423.452H814.308ZM831.633 439.658V429.595C831.633 428.824 831.477 428.155 831.164 427.589C830.862 427.011 830.405 426.566 829.791 426.252C829.176 425.939 828.417 425.783 827.514 425.783C826.671 425.783 825.93 425.927 825.292 426.216C824.666 426.505 824.172 426.885 823.811 427.354C823.461 427.824 823.287 428.33 823.287 428.872H819.944C819.944 428.174 820.125 427.481 820.486 426.794C820.848 426.108 821.366 425.488 822.04 424.934C822.727 424.368 823.546 423.922 824.497 423.597C825.461 423.259 826.533 423.091 827.713 423.091C829.134 423.091 830.387 423.332 831.471 423.813C832.567 424.295 833.422 425.024 834.036 426C834.662 426.963 834.976 428.174 834.976 429.631V438.736C834.976 439.387 835.03 440.079 835.138 440.814C835.259 441.549 835.433 442.181 835.662 442.711V443H832.175C832.007 442.615 831.874 442.103 831.778 441.464C831.681 440.814 831.633 440.212 831.633 439.658ZM832.211 431.148L832.248 433.497H828.869C827.918 433.497 827.069 433.575 826.322 433.732C825.575 433.876 824.949 434.099 824.443 434.4C823.937 434.701 823.552 435.081 823.287 435.539C823.022 435.984 822.889 436.508 822.889 437.11C822.889 437.725 823.028 438.285 823.305 438.791C823.582 439.296 823.997 439.7 824.551 440.001C825.117 440.29 825.81 440.435 826.629 440.435C827.653 440.435 828.556 440.218 829.339 439.784C830.122 439.351 830.742 438.821 831.2 438.194C831.669 437.568 831.922 436.96 831.958 436.37L833.386 437.978C833.301 438.483 833.073 439.043 832.699 439.658C832.326 440.272 831.826 440.862 831.2 441.428C830.585 441.982 829.851 442.446 828.996 442.819C828.153 443.181 827.201 443.361 826.141 443.361C824.816 443.361 823.654 443.102 822.654 442.584C821.667 442.067 820.896 441.374 820.342 440.507C819.8 439.628 819.529 438.646 819.529 437.562C819.529 436.514 819.734 435.593 820.143 434.798C820.553 433.991 821.143 433.322 821.914 432.792C822.684 432.25 823.612 431.841 824.696 431.564C825.78 431.287 826.99 431.148 828.327 431.148H832.211ZM852.554 439.206V415.25H855.915V443H852.843L852.554 439.206ZM839.402 433.443V433.063C839.402 431.57 839.583 430.215 839.944 428.999C840.317 427.77 840.841 426.716 841.516 425.837C842.202 424.958 843.015 424.283 843.955 423.813C844.906 423.332 845.966 423.091 847.134 423.091C848.363 423.091 849.435 423.308 850.35 423.741C851.278 424.163 852.06 424.783 852.699 425.602C853.349 426.409 853.861 427.385 854.234 428.529C854.608 429.673 854.867 430.968 855.011 432.413V434.075C854.879 435.508 854.62 436.797 854.234 437.941C853.861 439.086 853.349 440.061 852.699 440.868C852.06 441.675 851.278 442.295 850.35 442.729C849.423 443.151 848.339 443.361 847.098 443.361C845.954 443.361 844.906 443.114 843.955 442.621C843.015 442.127 842.202 441.434 841.516 440.543C840.841 439.652 840.317 438.604 839.944 437.399C839.583 436.183 839.402 434.864 839.402 433.443ZM842.762 433.063V433.443C842.762 434.418 842.859 435.334 843.051 436.189C843.256 437.044 843.569 437.797 843.991 438.447C844.412 439.098 844.948 439.61 845.599 439.983C846.249 440.344 847.026 440.525 847.929 440.525C849.037 440.525 849.947 440.29 850.657 439.82C851.38 439.351 851.958 438.73 852.392 437.959C852.825 437.189 853.162 436.352 853.403 435.448V431.094C853.259 430.432 853.048 429.793 852.771 429.179C852.506 428.553 852.157 427.999 851.723 427.517C851.302 427.023 850.778 426.632 850.151 426.343C849.537 426.054 848.808 425.909 847.965 425.909C847.05 425.909 846.261 426.102 845.599 426.487C844.948 426.861 844.412 427.379 843.991 428.041C843.569 428.691 843.256 429.45 843.051 430.317C842.859 431.173 842.762 432.088 842.762 433.063ZM860.232 433.443V433.027C860.232 431.618 860.437 430.311 860.847 429.107C861.256 427.89 861.846 426.837 862.617 425.945C863.388 425.042 864.321 424.343 865.417 423.85C866.514 423.344 867.742 423.091 869.103 423.091C870.476 423.091 871.711 423.344 872.807 423.85C873.915 424.343 874.854 425.042 875.625 425.945C876.408 426.837 877.004 427.89 877.414 429.107C877.823 430.311 878.028 431.618 878.028 433.027V433.443C878.028 434.852 877.823 436.159 877.414 437.363C877.004 438.568 876.408 439.622 875.625 440.525C874.854 441.416 873.921 442.115 872.825 442.621C871.741 443.114 870.512 443.361 869.139 443.361C867.766 443.361 866.532 443.114 865.436 442.621C864.34 442.115 863.4 441.416 862.617 440.525C861.846 439.622 861.256 438.568 860.847 437.363C860.437 436.159 860.232 434.852 860.232 433.443ZM863.575 433.027V433.443C863.575 434.418 863.689 435.34 863.918 436.207C864.147 437.062 864.49 437.821 864.948 438.483C865.417 439.146 866.002 439.67 866.7 440.055C867.399 440.429 868.212 440.615 869.139 440.615C870.055 440.615 870.855 440.429 871.542 440.055C872.241 439.67 872.819 439.146 873.276 438.483C873.734 437.821 874.077 437.062 874.306 436.207C874.547 435.34 874.667 434.418 874.667 433.443V433.027C874.667 432.064 874.547 431.154 874.306 430.299C874.077 429.432 873.728 428.667 873.258 428.005C872.801 427.33 872.222 426.8 871.524 426.415C870.837 426.03 870.03 425.837 869.103 425.837C868.188 425.837 867.381 426.03 866.682 426.415C865.996 426.8 865.417 427.33 864.948 428.005C864.49 428.667 864.147 429.432 863.918 430.299C863.689 431.154 863.575 432.064 863.575 433.027ZM885.562 426.523V443H882.219V423.452H885.471L885.562 426.523ZM891.668 423.344L891.65 426.451C891.373 426.391 891.108 426.355 890.855 426.343C890.614 426.319 890.337 426.307 890.024 426.307C889.253 426.307 888.573 426.427 887.982 426.668C887.392 426.909 886.892 427.246 886.483 427.68C886.073 428.113 885.748 428.631 885.507 429.233C885.278 429.824 885.128 430.474 885.056 431.185L884.116 431.727C884.116 430.546 884.231 429.438 884.459 428.402C884.7 427.367 885.068 426.451 885.562 425.656C886.055 424.849 886.682 424.223 887.44 423.777C888.211 423.32 889.127 423.091 890.187 423.091C890.427 423.091 890.704 423.121 891.018 423.181C891.331 423.229 891.548 423.284 891.668 423.344Z" fill="black"/>
<g filter="url(#filter1_d_176_1010)">
<rect width="752" height="93.4173" rx="46.7086" transform="matrix(1 0 0 -1 344 634)" fill="#2C9C22"/>
</g>
<path d="M577.121 587.992C577.121 587.345 577.019 586.773 576.816 586.278C576.625 585.771 576.283 585.313 575.788 584.907C575.305 584.501 574.632 584.114 573.769 583.746C572.918 583.377 571.839 583.003 570.532 582.622C569.161 582.216 567.923 581.765 566.818 581.27C565.714 580.762 564.768 580.185 563.981 579.537C563.194 578.89 562.591 578.147 562.172 577.309C561.753 576.471 561.543 575.513 561.543 574.434C561.543 573.354 561.766 572.358 562.21 571.444C562.654 570.53 563.289 569.736 564.114 569.063C564.952 568.378 565.949 567.845 567.104 567.464C568.259 567.083 569.548 566.893 570.97 566.893C573.052 566.893 574.816 567.292 576.264 568.092C577.724 568.879 578.834 569.914 579.596 571.196C580.358 572.466 580.739 573.824 580.739 575.271H577.083C577.083 574.23 576.86 573.31 576.416 572.51C575.972 571.698 575.299 571.063 574.397 570.606C573.496 570.136 572.354 569.901 570.97 569.901C569.662 569.901 568.583 570.098 567.732 570.492C566.882 570.885 566.247 571.418 565.828 572.091C565.422 572.764 565.219 573.532 565.219 574.396C565.219 574.979 565.339 575.513 565.581 575.995C565.834 576.465 566.222 576.903 566.742 577.309C567.275 577.715 567.948 578.09 568.761 578.433C569.586 578.775 570.57 579.105 571.712 579.423C573.287 579.867 574.645 580.362 575.788 580.908C576.93 581.454 577.87 582.07 578.606 582.755C579.355 583.428 579.907 584.196 580.263 585.06C580.631 585.91 580.815 586.875 580.815 587.954C580.815 589.084 580.586 590.106 580.129 591.02C579.672 591.934 579.019 592.715 578.168 593.362C577.317 594.01 576.295 594.511 575.102 594.867C573.921 595.209 572.601 595.381 571.141 595.381C569.859 595.381 568.596 595.203 567.352 594.848C566.12 594.492 564.997 593.959 563.981 593.248C562.978 592.537 562.172 591.661 561.562 590.62C560.966 589.566 560.667 588.348 560.667 586.964H564.324C564.324 587.916 564.508 588.735 564.876 589.42C565.244 590.093 565.746 590.652 566.38 591.096C567.028 591.541 567.758 591.871 568.57 592.086C569.396 592.29 570.252 592.391 571.141 592.391C572.423 592.391 573.509 592.213 574.397 591.858C575.286 591.502 575.959 590.995 576.416 590.334C576.886 589.674 577.121 588.894 577.121 587.992ZM593.517 595.381C592.082 595.381 590.781 595.14 589.613 594.657C588.458 594.162 587.461 593.47 586.623 592.582C585.798 591.693 585.163 590.639 584.719 589.42C584.274 588.202 584.052 586.869 584.052 585.421V584.622C584.052 582.946 584.3 581.454 584.795 580.146C585.29 578.826 585.963 577.709 586.813 576.795C587.664 575.881 588.629 575.189 589.708 574.719C590.787 574.25 591.904 574.015 593.06 574.015C594.532 574.015 595.802 574.269 596.868 574.776C597.947 575.284 598.83 575.995 599.515 576.909C600.201 577.811 600.708 578.877 601.039 580.108C601.369 581.327 601.534 582.66 601.534 584.107V585.688H586.147V582.812H598.011V582.546C597.96 581.632 597.77 580.743 597.439 579.88C597.122 579.017 596.614 578.306 595.916 577.747C595.218 577.188 594.266 576.909 593.06 576.909C592.26 576.909 591.523 577.081 590.851 577.423C590.178 577.753 589.6 578.249 589.118 578.909C588.635 579.569 588.261 580.375 587.994 581.327C587.728 582.279 587.594 583.377 587.594 584.622V585.421C587.594 586.399 587.728 587.319 587.994 588.183C588.273 589.033 588.673 589.782 589.194 590.43C589.727 591.077 590.368 591.585 591.117 591.953C591.879 592.321 592.742 592.505 593.707 592.505C594.951 592.505 596.005 592.251 596.868 591.744C597.731 591.236 598.487 590.557 599.134 589.706L601.267 591.401C600.823 592.074 600.258 592.715 599.572 593.324C598.887 593.934 598.042 594.429 597.04 594.81C596.049 595.19 594.875 595.381 593.517 595.381ZM605.742 574.396H609.284V597.457C609.284 598.713 609.081 599.78 608.675 600.656C608.281 601.532 607.685 602.192 606.885 602.636C606.098 603.093 605.101 603.322 603.895 603.322C603.578 603.322 603.209 603.29 602.791 603.227C602.359 603.163 601.997 603.087 601.705 602.998L601.724 600.161C601.965 600.211 602.238 600.25 602.543 600.275C602.848 600.313 603.114 600.332 603.343 600.332C603.863 600.332 604.301 600.237 604.657 600.046C605.012 599.856 605.279 599.551 605.457 599.132C605.647 598.713 605.742 598.155 605.742 597.457V574.396ZM605.38 568.93C605.38 568.359 605.558 567.876 605.914 567.483C606.269 567.089 606.783 566.893 607.456 566.893C608.142 566.893 608.662 567.089 609.018 567.483C609.373 567.876 609.551 568.359 609.551 568.93C609.551 569.476 609.373 569.946 609.018 570.339C608.662 570.72 608.142 570.911 607.456 570.911C606.783 570.911 606.269 570.72 605.914 570.339C605.558 569.946 605.38 569.476 605.38 568.93ZM627.127 591.477V580.87C627.127 580.058 626.962 579.353 626.632 578.756C626.315 578.147 625.833 577.677 625.185 577.347C624.538 577.017 623.738 576.852 622.786 576.852C621.897 576.852 621.116 577.004 620.443 577.309C619.783 577.614 619.263 578.014 618.882 578.509C618.514 579.004 618.33 579.537 618.33 580.108H614.807C614.807 579.372 614.997 578.642 615.378 577.918C615.759 577.195 616.305 576.541 617.016 575.957C617.739 575.36 618.603 574.891 619.605 574.548C620.621 574.192 621.751 574.015 622.995 574.015C624.493 574.015 625.813 574.269 626.956 574.776C628.111 575.284 629.013 576.052 629.66 577.081C630.32 578.096 630.65 579.372 630.65 580.908V590.506C630.65 591.191 630.708 591.921 630.822 592.696C630.949 593.47 631.133 594.137 631.374 594.695V595H627.699C627.521 594.594 627.381 594.054 627.28 593.381C627.178 592.696 627.127 592.061 627.127 591.477ZM627.737 582.508L627.775 584.983H624.214C623.211 584.983 622.316 585.066 621.529 585.231C620.742 585.383 620.082 585.618 619.548 585.936C619.015 586.253 618.609 586.653 618.33 587.135C618.05 587.605 617.911 588.157 617.911 588.792C617.911 589.439 618.057 590.03 618.349 590.563C618.641 591.096 619.079 591.521 619.663 591.839C620.259 592.144 620.989 592.296 621.853 592.296C622.932 592.296 623.884 592.067 624.709 591.61C625.534 591.153 626.188 590.595 626.67 589.935C627.166 589.274 627.432 588.633 627.47 588.011L628.975 589.706C628.886 590.239 628.645 590.83 628.251 591.477C627.857 592.125 627.331 592.747 626.67 593.343C626.023 593.927 625.249 594.416 624.347 594.81C623.458 595.19 622.456 595.381 621.338 595.381C619.942 595.381 618.717 595.108 617.663 594.562C616.622 594.016 615.81 593.286 615.226 592.372C614.654 591.445 614.369 590.411 614.369 589.268C614.369 588.164 614.584 587.192 615.016 586.354C615.448 585.504 616.07 584.799 616.882 584.241C617.695 583.669 618.672 583.238 619.815 582.946C620.958 582.654 622.233 582.508 623.643 582.508H627.737ZM658.472 590.239V574.396H662.014V595H658.644L658.472 590.239ZM659.139 585.897L660.605 585.859C660.605 587.23 660.459 588.5 660.167 589.668C659.888 590.823 659.431 591.826 658.796 592.677C658.161 593.527 657.33 594.194 656.301 594.676C655.273 595.146 654.022 595.381 652.55 595.381C651.547 595.381 650.626 595.235 649.789 594.943C648.963 594.651 648.252 594.2 647.656 593.591C647.059 592.981 646.596 592.188 646.266 591.21C645.948 590.233 645.79 589.059 645.79 587.688V574.396H649.312V587.726C649.312 588.652 649.414 589.42 649.617 590.03C649.833 590.626 650.119 591.103 650.474 591.458C650.842 591.801 651.249 592.042 651.693 592.182C652.15 592.321 652.62 592.391 653.102 592.391C654.6 592.391 655.787 592.105 656.663 591.534C657.539 590.95 658.167 590.169 658.548 589.192C658.942 588.202 659.139 587.104 659.139 585.897ZM670.888 578.49V595H667.346V574.396H670.698L670.888 578.49ZM670.165 583.917L668.527 583.86C668.54 582.451 668.724 581.149 669.079 579.956C669.435 578.75 669.961 577.703 670.66 576.814C671.358 575.925 672.228 575.24 673.269 574.757C674.31 574.262 675.516 574.015 676.887 574.015C677.852 574.015 678.74 574.154 679.553 574.434C680.365 574.7 681.07 575.125 681.667 575.709C682.263 576.293 682.727 577.042 683.057 577.957C683.387 578.871 683.552 579.975 683.552 581.27V595H680.029V581.441C680.029 580.362 679.845 579.499 679.477 578.852C679.121 578.204 678.613 577.734 677.953 577.442C677.293 577.138 676.519 576.985 675.63 576.985C674.589 576.985 673.719 577.169 673.021 577.538C672.323 577.906 671.764 578.414 671.345 579.061C670.926 579.708 670.622 580.451 670.431 581.289C670.253 582.114 670.165 582.99 670.165 583.917ZM683.514 581.975L681.152 582.698C681.165 581.568 681.349 580.483 681.705 579.442C682.073 578.401 682.6 577.474 683.285 576.662C683.983 575.849 684.84 575.208 685.856 574.738C686.872 574.256 688.033 574.015 689.341 574.015C690.445 574.015 691.423 574.161 692.273 574.453C693.137 574.745 693.86 575.195 694.444 575.805C695.041 576.401 695.492 577.169 695.796 578.109C696.101 579.048 696.253 580.166 696.253 581.46V595H692.711V581.422C692.711 580.267 692.527 579.372 692.159 578.737C691.804 578.09 691.296 577.639 690.636 577.385C689.988 577.119 689.214 576.985 688.312 576.985C687.538 576.985 686.853 577.119 686.256 577.385C685.659 577.652 685.158 578.02 684.751 578.49C684.345 578.947 684.034 579.474 683.818 580.07C683.615 580.667 683.514 581.302 683.514 581.975ZM717.524 591.82L723.161 574.396H726.76L719.353 595H716.991L717.524 591.82ZM712.821 574.396L718.629 591.915L719.029 595H716.667L709.203 574.396H712.821ZM728.912 584.926V584.488C728.912 583.003 729.128 581.625 729.56 580.356C729.991 579.074 730.613 577.963 731.426 577.023C732.238 576.071 733.222 575.335 734.377 574.814C735.533 574.281 736.828 574.015 738.262 574.015C739.709 574.015 741.011 574.281 742.166 574.814C743.334 575.335 744.324 576.071 745.137 577.023C745.962 577.963 746.59 579.074 747.022 580.356C747.454 581.625 747.669 583.003 747.669 584.488V584.926C747.669 586.412 747.454 587.789 747.022 589.059C746.59 590.328 745.962 591.439 745.137 592.391C744.324 593.331 743.34 594.067 742.185 594.6C741.042 595.121 739.748 595.381 738.3 595.381C736.853 595.381 735.552 595.121 734.396 594.6C733.241 594.067 732.251 593.331 731.426 592.391C730.613 591.439 729.991 590.328 729.56 589.059C729.128 587.789 728.912 586.412 728.912 584.926ZM732.435 584.488V584.926C732.435 585.955 732.556 586.926 732.797 587.84C733.038 588.741 733.4 589.541 733.882 590.239C734.377 590.938 734.993 591.49 735.729 591.896C736.466 592.29 737.323 592.486 738.3 592.486C739.265 592.486 740.109 592.29 740.833 591.896C741.569 591.49 742.179 590.938 742.661 590.239C743.144 589.541 743.505 588.741 743.747 587.84C744 586.926 744.127 585.955 744.127 584.926V584.488C744.127 583.473 744 582.514 743.747 581.613C743.505 580.699 743.137 579.893 742.642 579.194C742.16 578.483 741.55 577.925 740.814 577.519C740.09 577.112 739.24 576.909 738.262 576.909C737.297 576.909 736.447 577.112 735.71 577.519C734.987 577.925 734.377 578.483 733.882 579.194C733.4 579.893 733.038 580.699 732.797 581.613C732.556 582.514 732.435 583.473 732.435 584.488ZM755.915 565.75V595H752.373V565.75H755.915ZM774.177 590.239V574.396H777.719V595H774.349L774.177 590.239ZM774.844 585.897L776.31 585.859C776.31 587.23 776.164 588.5 775.872 589.668C775.593 590.823 775.136 591.826 774.501 592.677C773.866 593.527 773.035 594.194 772.006 594.676C770.978 595.146 769.728 595.381 768.255 595.381C767.252 595.381 766.332 595.235 765.494 594.943C764.668 594.651 763.958 594.2 763.361 593.591C762.764 592.981 762.301 592.188 761.971 591.21C761.653 590.233 761.495 589.059 761.495 587.688V574.396H765.018V587.726C765.018 588.652 765.119 589.42 765.322 590.03C765.538 590.626 765.824 591.103 766.179 591.458C766.547 591.801 766.954 592.042 767.398 592.182C767.855 592.321 768.325 592.391 768.807 592.391C770.305 592.391 771.492 592.105 772.368 591.534C773.244 590.95 773.873 590.169 774.253 589.192C774.647 588.202 774.844 587.104 774.844 585.897ZM786.612 578.794V595H783.089V574.396H786.422L786.612 578.794ZM785.774 583.917L784.308 583.86C784.321 582.451 784.53 581.149 784.937 579.956C785.343 578.75 785.914 577.703 786.65 576.814C787.387 575.925 788.263 575.24 789.278 574.757C790.307 574.262 791.443 574.015 792.687 574.015C793.703 574.015 794.617 574.154 795.429 574.434C796.242 574.7 796.934 575.132 797.505 575.729C798.089 576.325 798.533 577.1 798.838 578.052C799.143 578.991 799.295 580.14 799.295 581.499V595H795.753V581.46C795.753 580.381 795.594 579.518 795.277 578.871C794.959 578.21 794.496 577.734 793.887 577.442C793.277 577.138 792.528 576.985 791.64 576.985C790.764 576.985 789.964 577.169 789.24 577.538C788.529 577.906 787.914 578.414 787.393 579.061C786.885 579.708 786.485 580.451 786.193 581.289C785.914 582.114 785.774 582.99 785.774 583.917ZM813.272 574.396V577.1H802.132V574.396H813.272ZM805.903 569.387H809.426V589.896C809.426 590.595 809.534 591.122 809.75 591.477C809.965 591.833 810.245 592.067 810.587 592.182C810.93 592.296 811.298 592.353 811.692 592.353C811.984 592.353 812.289 592.328 812.606 592.277C812.936 592.213 813.184 592.163 813.349 592.125L813.368 595C813.088 595.089 812.72 595.171 812.263 595.248C811.819 595.336 811.279 595.381 810.645 595.381C809.781 595.381 808.988 595.209 808.264 594.867C807.541 594.524 806.963 593.953 806.531 593.153C806.112 592.34 805.903 591.249 805.903 589.877V569.387ZM829.554 591.477V580.87C829.554 580.058 829.389 579.353 829.059 578.756C828.742 578.147 828.259 577.677 827.612 577.347C826.964 577.017 826.165 576.852 825.212 576.852C824.324 576.852 823.543 577.004 822.87 577.309C822.21 577.614 821.689 578.014 821.309 578.509C820.94 579.004 820.756 579.537 820.756 580.108H817.233C817.233 579.372 817.424 578.642 817.805 577.918C818.186 577.195 818.731 576.541 819.442 575.957C820.166 575.36 821.029 574.891 822.032 574.548C823.048 574.192 824.178 574.015 825.422 574.015C826.92 574.015 828.24 574.269 829.383 574.776C830.538 575.284 831.439 576.052 832.087 577.081C832.747 578.096 833.077 579.372 833.077 580.908V590.506C833.077 591.191 833.134 591.921 833.249 592.696C833.375 593.47 833.56 594.137 833.801 594.695V595H830.125C829.948 594.594 829.808 594.054 829.707 593.381C829.605 592.696 829.554 592.061 829.554 591.477ZM830.164 582.508L830.202 584.983H826.641C825.638 584.983 824.743 585.066 823.956 585.231C823.168 585.383 822.508 585.618 821.975 585.936C821.442 586.253 821.036 586.653 820.756 587.135C820.477 587.605 820.337 588.157 820.337 588.792C820.337 589.439 820.483 590.03 820.775 590.563C821.067 591.096 821.505 591.521 822.089 591.839C822.686 592.144 823.416 592.296 824.279 592.296C825.358 592.296 826.311 592.067 827.136 591.61C827.961 591.153 828.615 590.595 829.097 589.935C829.592 589.274 829.859 588.633 829.897 588.011L831.401 589.706C831.312 590.239 831.071 590.83 830.678 591.477C830.284 592.125 829.757 592.747 829.097 593.343C828.45 593.927 827.675 594.416 826.774 594.81C825.885 595.19 824.882 595.381 823.765 595.381C822.369 595.381 821.144 595.108 820.09 594.562C819.049 594.016 818.236 593.286 817.652 592.372C817.081 591.445 816.795 590.411 816.795 589.268C816.795 588.164 817.011 587.192 817.443 586.354C817.875 585.504 818.497 584.799 819.309 584.241C820.122 583.669 821.099 583.238 822.242 582.946C823.384 582.654 824.66 582.508 826.069 582.508H830.164ZM842.142 577.633V595H838.619V574.396H842.046L842.142 577.633ZM848.578 574.281L848.559 577.557C848.267 577.493 847.988 577.455 847.721 577.442C847.467 577.417 847.175 577.404 846.845 577.404C846.033 577.404 845.315 577.531 844.693 577.785C844.071 578.039 843.544 578.395 843.113 578.852C842.681 579.309 842.338 579.854 842.084 580.489C841.843 581.111 841.685 581.797 841.608 582.546L840.618 583.117C840.618 581.873 840.739 580.705 840.98 579.613C841.234 578.521 841.621 577.557 842.142 576.719C842.662 575.868 843.322 575.208 844.122 574.738C844.935 574.256 845.899 574.015 847.017 574.015C847.271 574.015 847.562 574.046 847.893 574.11C848.223 574.161 848.451 574.218 848.578 574.281ZM855.662 574.396V595H852.12V574.396H855.662ZM851.854 568.93C851.854 568.359 852.025 567.876 852.368 567.483C852.723 567.089 853.244 566.893 853.929 566.893C854.602 566.893 855.116 567.089 855.472 567.483C855.84 567.876 856.024 568.359 856.024 568.93C856.024 569.476 855.84 569.946 855.472 570.339C855.116 570.72 854.602 570.911 853.929 570.911C853.244 570.911 852.723 570.72 852.368 570.339C852.025 569.946 851.854 569.476 851.854 568.93ZM860.385 584.926V584.488C860.385 583.003 860.601 581.625 861.032 580.356C861.464 579.074 862.086 577.963 862.898 577.023C863.711 576.071 864.695 575.335 865.85 574.814C867.005 574.281 868.3 574.015 869.735 574.015C871.182 574.015 872.483 574.281 873.639 574.814C874.807 575.335 875.797 576.071 876.609 577.023C877.435 577.963 878.063 579.074 878.495 580.356C878.926 581.625 879.142 583.003 879.142 584.488V584.926C879.142 586.412 878.926 587.789 878.495 589.059C878.063 590.328 877.435 591.439 876.609 592.391C875.797 593.331 874.813 594.067 873.658 594.6C872.515 595.121 871.22 595.381 869.773 595.381C868.326 595.381 867.024 595.121 865.869 594.6C864.714 594.067 863.724 593.331 862.898 592.391C862.086 591.439 861.464 590.328 861.032 589.059C860.601 587.789 860.385 586.412 860.385 584.926ZM863.908 584.488V584.926C863.908 585.955 864.028 586.926 864.27 587.84C864.511 588.741 864.873 589.541 865.355 590.239C865.85 590.938 866.466 591.49 867.202 591.896C867.938 592.29 868.795 592.486 869.773 592.486C870.738 592.486 871.582 592.29 872.306 591.896C873.042 591.49 873.651 590.938 874.134 590.239C874.616 589.541 874.978 588.741 875.219 587.84C875.473 586.926 875.6 585.955 875.6 584.926V584.488C875.6 583.473 875.473 582.514 875.219 581.613C874.978 580.699 874.61 579.893 874.115 579.194C873.632 578.483 873.023 577.925 872.287 577.519C871.563 577.112 870.712 576.909 869.735 576.909C868.77 576.909 867.919 577.112 867.183 577.519C866.459 577.925 865.85 578.483 865.355 579.194C864.873 579.893 864.511 580.699 864.27 581.613C864.028 582.514 863.908 583.473 863.908 584.488Z" fill="black"/>
<g filter="url(#filter2_d_176_1010)">
<rect width="752" height="93.4173" rx="46.7086" transform="matrix(1 0 0 -1 347 785.417)" fill="#2C9C22"/>
</g>
<path d="M694.931 743.427V746.417H681.067V743.427H694.931ZM681.791 718.69V746.417H678.116V718.69H681.791ZM697.673 736.343V735.905C697.673 734.42 697.889 733.042 698.32 731.773C698.752 730.491 699.374 729.38 700.187 728.44C700.999 727.488 701.983 726.752 703.138 726.231C704.293 725.698 705.588 725.432 707.023 725.432C708.47 725.432 709.771 725.698 710.927 726.231C712.095 726.752 713.085 727.488 713.897 728.44C714.723 729.38 715.351 730.491 715.783 731.773C716.214 733.042 716.43 734.42 716.43 735.905V736.343C716.43 737.829 716.214 739.206 715.783 740.476C715.351 741.745 714.723 742.856 713.897 743.808C713.085 744.748 712.101 745.484 710.946 746.017C709.803 746.538 708.508 746.798 707.061 746.798C705.614 746.798 704.312 746.538 703.157 746.017C702.002 745.484 701.012 744.748 700.187 743.808C699.374 742.856 698.752 741.745 698.32 740.476C697.889 739.206 697.673 737.829 697.673 736.343ZM701.196 735.905V736.343C701.196 737.372 701.316 738.343 701.558 739.257C701.799 740.158 702.161 740.958 702.643 741.656C703.138 742.354 703.754 742.907 704.49 743.313C705.227 743.707 706.083 743.903 707.061 743.903C708.026 743.903 708.87 743.707 709.594 743.313C710.33 742.907 710.939 742.354 711.422 741.656C711.904 740.958 712.266 740.158 712.507 739.257C712.761 738.343 712.888 737.372 712.888 736.343V735.905C712.888 734.89 712.761 733.931 712.507 733.03C712.266 732.116 711.898 731.31 711.403 730.611C710.92 729.9 710.311 729.342 709.575 728.936C708.851 728.529 708 728.326 707.023 728.326C706.058 728.326 705.208 728.529 704.471 728.936C703.748 729.342 703.138 729.9 702.643 730.611C702.161 731.31 701.799 732.116 701.558 733.03C701.316 733.931 701.196 734.89 701.196 735.905ZM734.197 725.812H737.396V745.979C737.396 747.794 737.028 749.343 736.292 750.625C735.556 751.908 734.527 752.879 733.207 753.539C731.899 754.212 730.389 754.548 728.675 754.548C727.964 754.548 727.126 754.434 726.161 754.206C725.209 753.99 724.27 753.615 723.343 753.082C722.429 752.562 721.661 751.857 721.039 750.968L722.886 748.874C723.749 749.915 724.65 750.638 725.59 751.044C726.542 751.451 727.481 751.654 728.408 751.654C729.525 751.654 730.49 751.444 731.303 751.025C732.115 750.606 732.744 749.984 733.188 749.159C733.645 748.347 733.874 747.344 733.874 746.15V730.345L734.197 725.812ZM720.01 736.343V735.943C720.01 734.369 720.194 732.941 720.562 731.659C720.943 730.364 721.483 729.253 722.181 728.326C722.892 727.399 723.749 726.688 724.752 726.193C725.755 725.686 726.885 725.432 728.142 725.432C729.437 725.432 730.566 725.66 731.531 726.117C732.509 726.562 733.334 727.215 734.007 728.079C734.692 728.929 735.232 729.958 735.625 731.164C736.019 732.37 736.292 733.734 736.444 735.258V737.01C736.305 738.521 736.032 739.879 735.625 741.085C735.232 742.291 734.692 743.319 734.007 744.17C733.334 745.021 732.509 745.674 731.531 746.131C730.554 746.576 729.411 746.798 728.104 746.798C726.872 746.798 725.755 746.538 724.752 746.017C723.762 745.497 722.911 744.767 722.2 743.827C721.489 742.888 720.943 741.783 720.562 740.514C720.194 739.231 720.01 737.841 720.01 736.343ZM723.533 735.943V736.343C723.533 737.372 723.635 738.336 723.838 739.238C724.054 740.139 724.377 740.933 724.809 741.618C725.253 742.304 725.818 742.843 726.504 743.237C727.189 743.618 728.008 743.808 728.96 743.808C730.128 743.808 731.093 743.561 731.855 743.065C732.617 742.57 733.22 741.917 733.664 741.104C734.121 740.292 734.477 739.409 734.73 738.457V733.868C734.591 733.169 734.375 732.497 734.083 731.849C733.804 731.189 733.436 730.605 732.979 730.097C732.534 729.577 731.982 729.164 731.322 728.859C730.662 728.555 729.887 728.402 728.999 728.402C728.034 728.402 727.202 728.605 726.504 729.012C725.818 729.405 725.253 729.951 724.809 730.649C724.377 731.335 724.054 732.135 723.838 733.049C723.635 733.95 723.533 734.915 723.533 735.943ZM746.575 725.812V746.417H743.033V725.812H746.575ZM742.767 720.347C742.767 719.776 742.938 719.293 743.281 718.9C743.636 718.506 744.157 718.31 744.842 718.31C745.515 718.31 746.029 718.506 746.385 718.9C746.753 719.293 746.937 719.776 746.937 720.347C746.937 720.893 746.753 721.363 746.385 721.756C746.029 722.137 745.515 722.328 744.842 722.328C744.157 722.328 743.636 722.137 743.281 721.756C742.938 721.363 742.767 720.893 742.767 720.347ZM755.754 730.211V746.417H752.231V725.812H755.563L755.754 730.211ZM754.916 735.334L753.45 735.277C753.462 733.868 753.672 732.566 754.078 731.373C754.484 730.167 755.056 729.12 755.792 728.231C756.528 727.342 757.404 726.657 758.42 726.174C759.448 725.679 760.584 725.432 761.829 725.432C762.844 725.432 763.758 725.571 764.571 725.851C765.383 726.117 766.075 726.549 766.646 727.146C767.23 727.742 767.675 728.517 767.979 729.469C768.284 730.408 768.437 731.557 768.437 732.916V746.417H764.895V732.877C764.895 731.798 764.736 730.935 764.418 730.288C764.101 729.627 763.638 729.151 763.028 728.859C762.419 728.555 761.67 728.402 760.781 728.402C759.905 728.402 759.105 728.586 758.382 728.955C757.671 729.323 757.055 729.831 756.535 730.478C756.027 731.125 755.627 731.868 755.335 732.706C755.056 733.531 754.916 734.407 754.916 735.334Z" fill="black"/>
<path d="M159.441 97.36C159.947 94.5067 161.014 92.4 162.641 91.04C164.267 89.68 166.547 89 169.481 89H179.721L179.321 91.32H169.681C167.547 91.32 165.881 91.8133 164.681 92.8C163.481 93.76 162.694 95.28 162.321 97.36L161.361 102.64H175.281L174.881 104.96H160.961L158.841 117H155.961L159.441 97.36ZM181.888 117.44C181.274 116.987 180.821 116.52 180.528 116.04C180.234 115.56 180.088 115.027 180.088 114.44C180.088 114.253 180.114 113.947 180.168 113.52L184.008 91.84C184.034 91.68 184.048 91.48 184.048 91.24C184.048 90.9467 183.981 90.68 183.848 90.44C183.741 90.2 183.528 89.92 183.208 89.6L185.008 88C185.621 88.4533 186.061 88.92 186.328 89.4C186.594 89.8533 186.728 90.3733 186.728 90.96C186.728 91.36 186.701 91.68 186.648 91.92L182.848 113.6C182.821 113.733 182.808 113.92 182.808 114.16C182.808 114.48 182.874 114.76 183.008 115C183.141 115.24 183.368 115.52 183.688 115.84L181.888 117.44ZM196.34 117.44C193.993 117.44 192.207 116.92 190.98 115.88C189.78 114.813 189.18 113.4 189.18 111.64C189.18 111.16 189.22 110.68 189.3 110.2L190.22 105C190.62 102.76 191.553 101 193.02 99.72C194.513 98.4133 196.58 97.76 199.22 97.76C201.54 97.76 203.287 98.2933 204.46 99.36C205.633 100.4 206.22 101.787 206.22 103.52C206.22 103.973 206.18 104.467 206.1 105L205.18 110.2C204.807 112.413 203.887 114.173 202.42 115.48C200.98 116.787 198.953 117.44 196.34 117.44ZM196.34 115.28C198.127 115.28 199.527 114.813 200.54 113.88C201.58 112.92 202.233 111.693 202.5 110.2L203.42 105C203.5 104.6 203.54 104.2 203.54 103.8C203.54 102.627 203.167 101.693 202.42 101C201.7 100.28 200.567 99.92 199.02 99.92C197.233 99.92 195.833 100.387 194.82 101.32C193.807 102.253 193.167 103.48 192.9 105L191.98 110.2C191.9 110.6 191.86 111 191.86 111.4C191.86 112.6 192.22 113.547 192.94 114.24C193.66 114.933 194.793 115.28 196.34 115.28ZM221.528 97.76C222.034 97.76 222.554 97.8267 223.088 97.96C223.648 98.0667 224.088 98.24 224.408 98.48L223.248 100.92C222.554 100.467 221.741 100.24 220.808 100.24C219.288 100.24 217.954 100.907 216.808 102.24C215.688 103.547 214.768 105.16 214.048 107.08L212.288 117H209.608L212.328 101.6C212.354 101.467 212.368 101.293 212.368 101.08C212.368 100.76 212.301 100.467 212.168 100.2C212.034 99.9333 211.808 99.64 211.488 99.32L213.328 97.76C213.968 98.1333 214.421 98.5467 214.688 99C214.981 99.4267 215.128 99.9467 215.128 100.56C215.128 100.907 215.088 101.28 215.008 101.68L214.848 102.56C215.648 101.067 216.581 99.8933 217.648 99.04C218.741 98.1867 220.034 97.76 221.528 97.76ZM230.755 93.96C230.301 93.96 229.928 93.8133 229.635 93.52C229.341 93.2267 229.195 92.8533 229.195 92.4C229.195 91.84 229.421 91.3467 229.875 90.92C230.328 90.4667 230.848 90.24 231.435 90.24C231.861 90.24 232.221 90.3867 232.515 90.68C232.808 90.9733 232.955 91.3333 232.955 91.76C232.955 92.32 232.728 92.8267 232.275 93.28C231.821 93.7333 231.315 93.96 230.755 93.96ZM227.675 117.44C227.061 116.987 226.608 116.52 226.315 116.04C226.021 115.56 225.875 115.013 225.875 114.4C225.875 114.24 225.901 113.947 225.955 113.52L228.675 98.2H231.355L228.635 113.6C228.608 113.733 228.595 113.92 228.595 114.16C228.595 114.48 228.661 114.76 228.795 115C228.928 115.24 229.155 115.52 229.475 115.84L227.675 117.44ZM247.041 97.76C249.174 97.76 250.854 98.4133 252.081 99.72C253.334 101.027 253.961 102.8 253.961 105.04C253.961 105.707 253.908 106.347 253.801 106.96L253.601 108.24C253.174 110.827 252.148 113.013 250.521 114.8C248.921 116.56 246.814 117.44 244.201 117.44C242.734 117.44 241.481 117.173 240.441 116.64C239.401 116.107 238.588 115.333 238.001 114.32L236.001 125.76H233.321L237.601 101.6C237.628 101.467 237.641 101.28 237.641 101.04C237.641 100.72 237.574 100.44 237.441 100.2C237.308 99.96 237.081 99.68 236.761 99.36L238.561 97.76C239.201 98.2133 239.654 98.6933 239.921 99.2C240.214 99.68 240.348 100.24 240.321 100.88C241.068 99.92 242.001 99.16 243.121 98.6C244.268 98.04 245.574 97.76 247.041 97.76ZM251.161 106.96C251.241 106.4 251.281 105.867 251.281 105.36C251.281 103.733 250.868 102.427 250.041 101.44C249.214 100.427 248.001 99.92 246.401 99.92C244.854 99.92 243.548 100.28 242.481 101C241.414 101.72 240.534 102.8 239.841 104.24L238.641 111C239.094 113.853 240.828 115.28 243.841 115.28C245.654 115.28 247.201 114.64 248.481 113.36C249.788 112.08 250.614 110.373 250.961 108.24L251.161 106.96ZM272.308 113.6C272.254 113.92 272.228 114.12 272.228 114.2C272.228 114.52 272.294 114.8 272.428 115.04C272.561 115.253 272.801 115.52 273.148 115.84L271.348 117.44C270.148 116.587 269.561 115.547 269.588 114.32C268.761 115.307 267.748 116.08 266.548 116.64C265.374 117.173 264.041 117.44 262.548 117.44C260.708 117.44 259.281 117.027 258.268 116.2C257.254 115.347 256.748 114.213 256.748 112.8C256.748 110.72 257.441 109.187 258.828 108.2C260.214 107.187 262.174 106.533 264.708 106.24L267.908 105.88C269.241 105.747 270.134 105.52 270.588 105.2C271.041 104.853 271.321 104.24 271.428 103.36V103.48C271.508 102.307 271.161 101.4 270.388 100.76C269.641 100.093 268.614 99.76 267.308 99.76C265.761 99.76 264.548 99.9467 263.668 100.32C262.814 100.693 261.974 101.307 261.148 102.16L259.548 100.8C260.401 99.76 261.454 99 262.708 98.52C263.988 98.0133 265.521 97.76 267.308 97.76C269.414 97.76 271.068 98.2267 272.268 99.16C273.494 100.093 274.108 101.36 274.108 102.96C274.108 103.333 274.068 103.72 273.988 104.12L272.308 113.6ZM270.868 106.84C270.494 107.08 270.054 107.267 269.548 107.4C269.068 107.533 268.428 107.64 267.628 107.72L264.628 108.04C262.894 108.227 261.574 108.72 260.668 109.52C259.761 110.32 259.308 111.373 259.308 112.68C259.308 114.467 260.574 115.36 263.108 115.36C264.974 115.36 266.561 114.88 267.868 113.92C269.174 112.96 269.974 111.693 270.268 110.12L270.868 106.84ZM301.68 106.12H291.64L289.88 116.2H287.6L289.36 106.12H279.36L279.76 103.96H289.76L291.52 93.88H293.8L292.04 103.96H302.08L301.68 106.12ZM314.659 117.44C312.339 117.44 310.392 117.053 308.819 116.28C307.272 115.48 305.992 114.253 304.979 112.6L307.259 110.88C308.032 112.32 309.045 113.387 310.299 114.08C311.579 114.773 313.112 115.12 314.899 115.12C316.659 115.12 318.205 114.853 319.539 114.32C320.899 113.787 321.939 113.027 322.659 112.04C323.405 111.053 323.779 109.92 323.779 108.64C323.779 107.68 323.432 106.92 322.739 106.36C322.072 105.773 321.205 105.333 320.139 105.04C319.099 104.72 317.565 104.347 315.539 103.92C313.432 103.493 311.765 102.747 310.539 101.68C309.312 100.613 308.699 99.1733 308.699 97.36C308.699 95.6267 309.139 94.0933 310.019 92.76C310.925 91.4267 312.179 90.4 313.779 89.68C315.405 88.9333 317.299 88.56 319.459 88.56C324.152 88.56 327.205 90.0533 328.619 93.04L326.379 94.64C325.765 93.4133 324.859 92.48 323.659 91.84C322.459 91.2 321.019 90.88 319.339 90.88C317.019 90.88 315.152 91.4533 313.739 92.6C312.325 93.7467 311.619 95.2533 311.619 97.12C311.619 98.4533 312.179 99.4533 313.299 100.12C314.419 100.76 315.925 101.267 317.819 101.64C319.685 102.013 321.232 102.427 322.459 102.88C323.685 103.307 324.699 103.973 325.499 104.88C326.299 105.76 326.699 106.96 326.699 108.48C326.699 110.24 326.192 111.8 325.179 113.16C324.192 114.52 322.792 115.573 320.979 116.32C319.165 117.067 317.059 117.44 314.659 117.44ZM337.785 117.44C335.438 117.44 333.652 116.92 332.425 115.88C331.225 114.813 330.625 113.4 330.625 111.64C330.625 111.16 330.665 110.68 330.745 110.2L331.665 105C332.065 102.76 332.998 101 334.465 99.72C335.958 98.4133 338.025 97.76 340.665 97.76C342.985 97.76 344.732 98.2933 345.905 99.36C347.078 100.4 347.665 101.787 347.665 103.52C347.665 103.973 347.625 104.467 347.545 105L346.625 110.2C346.252 112.413 345.332 114.173 343.865 115.48C342.425 116.787 340.398 117.44 337.785 117.44ZM337.785 115.28C339.572 115.28 340.972 114.813 341.985 113.88C343.025 112.92 343.678 111.693 343.945 110.2L344.865 105C344.945 104.6 344.985 104.2 344.985 103.8C344.985 102.627 344.612 101.693 343.865 101C343.145 100.28 342.012 99.92 340.465 99.92C338.678 99.92 337.278 100.387 336.265 101.32C335.252 102.253 334.612 103.48 334.345 105L333.425 110.2C333.345 110.6 333.305 111 333.305 111.4C333.305 112.6 333.665 113.547 334.385 114.24C335.105 114.933 336.238 115.28 337.785 115.28ZM358.688 117.44C356.315 117.44 354.488 116.96 353.208 116C351.928 115.013 351.288 113.627 351.288 111.84C351.288 111.387 351.328 110.92 351.408 110.44L352.408 104.76C352.808 102.547 353.768 100.827 355.288 99.6C356.835 98.3733 358.795 97.76 361.168 97.76C362.875 97.76 364.328 98.0267 365.528 98.56C366.728 99.0933 367.648 99.8533 368.288 100.84L366.168 102.4C365.528 101.493 364.835 100.853 364.088 100.48C363.368 100.107 362.395 99.92 361.168 99.92C359.568 99.92 358.222 100.36 357.128 101.24C356.035 102.093 355.355 103.267 355.088 104.76L354.088 110.44C354.008 110.84 353.968 111.213 353.968 111.56C353.968 112.76 354.368 113.68 355.168 114.32C355.968 114.96 357.142 115.28 358.688 115.28C359.915 115.28 360.982 115.093 361.888 114.72C362.822 114.32 363.675 113.693 364.448 112.84L366.048 114.4C365.035 115.493 363.955 116.28 362.808 116.76C361.688 117.213 360.315 117.44 358.688 117.44ZM375.989 93.96C375.536 93.96 375.162 93.8133 374.869 93.52C374.576 93.2267 374.429 92.8533 374.429 92.4C374.429 91.84 374.656 91.3467 375.109 90.92C375.562 90.4667 376.082 90.24 376.669 90.24C377.096 90.24 377.456 90.3867 377.749 90.68C378.042 90.9733 378.189 91.3333 378.189 91.76C378.189 92.32 377.962 92.8267 377.509 93.28C377.056 93.7333 376.549 93.96 375.989 93.96ZM372.909 117.44C372.296 116.987 371.842 116.52 371.549 116.04C371.256 115.56 371.109 115.013 371.109 114.4C371.109 114.24 371.136 113.947 371.189 113.52L373.909 98.2H376.589L373.869 113.6C373.842 113.733 373.829 113.92 373.829 114.16C373.829 114.48 373.896 114.76 374.029 115C374.162 115.24 374.389 115.52 374.709 115.84L372.909 117.44ZM395.315 113.6C395.262 113.92 395.235 114.12 395.235 114.2C395.235 114.52 395.302 114.8 395.435 115.04C395.569 115.253 395.809 115.52 396.155 115.84L394.355 117.44C393.155 116.587 392.569 115.547 392.595 114.32C391.769 115.307 390.755 116.08 389.555 116.64C388.382 117.173 387.049 117.44 385.555 117.44C383.715 117.44 382.289 117.027 381.275 116.2C380.262 115.347 379.755 114.213 379.755 112.8C379.755 110.72 380.449 109.187 381.835 108.2C383.222 107.187 385.182 106.533 387.715 106.24L390.915 105.88C392.249 105.747 393.142 105.52 393.595 105.2C394.049 104.853 394.329 104.24 394.435 103.36V103.48C394.515 102.307 394.169 101.4 393.395 100.76C392.649 100.093 391.622 99.76 390.315 99.76C388.769 99.76 387.555 99.9467 386.675 100.32C385.822 100.693 384.982 101.307 384.155 102.16L382.555 100.8C383.409 99.76 384.462 99 385.715 98.52C386.995 98.0133 388.529 97.76 390.315 97.76C392.422 97.76 394.075 98.2267 395.275 99.16C396.502 100.093 397.115 101.36 397.115 102.96C397.115 103.333 397.075 103.72 396.995 104.12L395.315 113.6ZM393.875 106.84C393.502 107.08 393.062 107.267 392.555 107.4C392.075 107.533 391.435 107.64 390.635 107.72L387.635 108.04C385.902 108.227 384.582 108.72 383.675 109.52C382.769 110.32 382.315 111.373 382.315 112.68C382.315 114.467 383.582 115.36 386.115 115.36C387.982 115.36 389.569 114.88 390.875 113.92C392.182 112.96 392.982 111.693 393.275 110.12L393.875 106.84ZM402.747 117.44C402.134 116.987 401.68 116.52 401.387 116.04C401.094 115.56 400.947 115.027 400.947 114.44C400.947 114.253 400.974 113.947 401.027 113.52L404.867 91.84C404.894 91.68 404.907 91.48 404.907 91.24C404.907 90.9467 404.84 90.68 404.707 90.44C404.6 90.2 404.387 89.92 404.067 89.6L405.867 88C406.48 88.4533 406.92 88.92 407.187 89.4C407.454 89.8533 407.587 90.3733 407.587 90.96C407.587 91.36 407.56 91.68 407.507 91.92L403.707 113.6C403.68 113.733 403.667 113.92 403.667 114.16C403.667 114.48 403.734 114.76 403.867 115C404 115.24 404.227 115.52 404.547 115.84L402.747 117.44Z" fill="black"/>
<path d="M95.5 75C80.8587 75 69 86.8587 69 101.5C69 116.141 80.8587 128 95.5 128C110.141 128 122 116.141 122 101.5C122 86.8587 110.141 75 95.5 75ZM95.5 81.625C97.6863 81.625 99.74 82.2213 101.728 82.8838C100.336 84.2088 98.7463 85.4012 99.0113 86.5938C99.2763 87.7863 103.583 87.455 103.583 89.9062C103.583 91.695 100.8 92.225 102.721 94.2788C105.04 96.5975 98.4812 100.771 98.3487 103.819C98.15 109.318 103.914 110.245 108.485 110.245C111.268 110.245 111.996 111.57 111.798 113.16C108.22 118.261 102.125 121.441 95.4338 121.441C92.9163 121.441 90.5975 120.845 88.4113 119.984C89.8687 117.069 86.5562 111.305 83.4425 109.45C81.9188 107.926 78.6725 108.522 76.8175 107.794C76.2212 106.005 75.625 104.216 75.5588 102.229C75.7575 101.898 76.0887 101.632 76.6187 101.632C77.8775 101.632 79.6 104.15 80.5275 103.885C81.72 103.62 75.625 95.2062 78.4738 93.55C79.7987 92.755 82.4487 96.1338 81.5875 92.49C80.7925 89.1113 83.9725 90.635 85.96 89.7738C87.6825 89.045 88.9412 87.0575 86.8213 85.865C86.4237 85.6663 85.96 85.2025 85.3638 84.6063C88.345 82.8175 91.79 81.6912 95.5 81.6912V81.625ZM110.804 88.8462C111.996 90.3037 112.924 91.8937 113.719 93.6162V93.815C113.454 94.2787 112.99 94.5437 112.261 95.2725C110.406 97.1275 110.141 93.8813 109.346 93.2188C108.485 92.4237 105.371 93.3512 104.974 92.3575C104.51 91.165 108.286 89.575 110.804 88.8462Z" fill="black"/>
<defs>
<filter id="filter0_d_176_1010" x="323.8" y="378.8" width="792.4" height="133.817" filterUnits="userSpaceOnUse" color-interpolation-filters="sRGB">
<feFlood flood-opacity="0" result="BackgroundImageFix"/>
<feColorMatrix in="SourceAlpha" type="matrix" values="0 0 0 0 0 0 0 0 0 0 0 0 0 0 0 0 0 0 127 0" result="hardAlpha"/>
<feOffset dy="10"/>
<feGaussianBlur stdDeviation="10.1"/>
<feComposite in2="hardAlpha" operator="out"/>
<feColorMatrix type="matrix" values="0 0 0 0 0 0 0 0 0 0 0 0 0 0 0 0 0 0 0.5 0"/>
<feBlend mode="normal" in2="BackgroundImageFix" result="effect1_dropShadow_176_1010"/>
<feBlend mode="normal" in="SourceGraphic" in2="effect1_dropShadow_176_1010" result="shape"/>
</filter>
<filter id="filter1_d_176_1010" x="323.8" y="530.383" width="792.4" height="133.817" filterUnits="userSpaceOnUse" color-interpolation-filters="sRGB">
<feFlood flood-opacity="0" result="BackgroundImageFix"/>
<feColorMatrix in="SourceAlpha" type="matrix" values="0 0 0 0 0 0 0 0 0 0 0 0 0 0 0 0 0 0 127 0" result="hardAlpha"/>
<feOffset dy="10"/>
<feGaussianBlur stdDeviation="10.1"/>
<feComposite in2="hardAlpha" operator="out"/>
<feColorMatrix type="matrix" values="0 0 0 0 0 0 0 0 0 0 0 0 0 0 0 0 0 0 0.5 0"/>
<feBlend mode="normal" in2="BackgroundImageFix" result="effect1_dropShadow_176_1010"/>
<feBlend mode="normal" in="SourceGraphic" in2="effect1_dropShadow_176_1010" result="shape"/>
</filter>
<filter id="filter2_d_176_1010" x="326.8" y="681.8" width="792.4" height="133.817" filterUnits="userSpaceOnUse" color-interpolation-filters="sRGB">
<feFlood flood-opacity="0" result="BackgroundImageFix"/>
<feColorMatrix in="SourceAlpha" type="matrix" values="0 0 0 0 0 0 0 0 0 0 0 0 0 0 0 0 0 0 127 0" result="hardAlpha"/>
<feOffset dy="10"/>
<feGaussianBlur stdDeviation="10.1"/>
<feComposite in2="hardAlpha" operator="out"/>
<feColorMatrix type="matrix" values="0 0 0 0 0 0 0 0 0 0 0 0 0 0 0 0 0 0 0.5 0"/>
<feBlend mode="normal" in2="BackgroundImageFix" result="effect1_dropShadow_176_1010"/>
<feBlend mode="normal" in="SourceGraphic" in2="effect1_dropShadow_176_1010" result="shape"/>
</filter>
</defs>
</svg>
