<svg width="1440" height="1024" viewBox="0 0 1440 1024" fill="none" xmlns="http://www.w3.org/2000/svg">
<rect width="1440" height="1024" fill="#D7DDDC"/>
<g filter="url(#filter0_bd_176_993)">
<rect width="779" height="55" rx="27.5" transform="matrix(1 0 0 -1 327 532)" fill="url(#paint0_linear_176_993)" shape-rendering="crispEdges"/>
</g>
<path d="M336.229 473.406C336.229 473.074 336.176 472.781 336.072 472.527C335.975 472.267 335.799 472.033 335.545 471.824C335.298 471.616 334.952 471.417 334.51 471.229C334.074 471.04 333.52 470.848 332.85 470.652C332.146 470.444 331.512 470.213 330.945 469.959C330.379 469.699 329.894 469.402 329.49 469.07C329.087 468.738 328.777 468.357 328.562 467.928C328.348 467.498 328.24 467.007 328.24 466.453C328.24 465.9 328.354 465.389 328.582 464.92C328.81 464.451 329.135 464.044 329.559 463.699C329.988 463.348 330.499 463.074 331.092 462.879C331.684 462.684 332.345 462.586 333.074 462.586C334.142 462.586 335.047 462.791 335.789 463.201C336.538 463.605 337.107 464.135 337.498 464.793C337.889 465.444 338.084 466.141 338.084 466.883H336.209C336.209 466.349 336.095 465.877 335.867 465.467C335.639 465.05 335.294 464.725 334.832 464.49C334.37 464.249 333.784 464.129 333.074 464.129C332.404 464.129 331.85 464.23 331.414 464.432C330.978 464.633 330.652 464.907 330.438 465.252C330.229 465.597 330.125 465.991 330.125 466.434C330.125 466.733 330.187 467.007 330.311 467.254C330.441 467.495 330.639 467.719 330.906 467.928C331.18 468.136 331.525 468.328 331.941 468.504C332.365 468.68 332.869 468.849 333.455 469.012C334.262 469.24 334.959 469.493 335.545 469.773C336.131 470.053 336.613 470.369 336.99 470.721C337.374 471.066 337.658 471.46 337.84 471.902C338.029 472.339 338.123 472.833 338.123 473.387C338.123 473.966 338.006 474.49 337.771 474.959C337.537 475.428 337.202 475.828 336.766 476.16C336.329 476.492 335.805 476.749 335.193 476.932C334.588 477.107 333.911 477.195 333.162 477.195C332.505 477.195 331.857 477.104 331.219 476.922C330.587 476.74 330.011 476.466 329.49 476.102C328.976 475.737 328.562 475.288 328.25 474.754C327.944 474.214 327.791 473.589 327.791 472.879H329.666C329.666 473.367 329.76 473.787 329.949 474.139C330.138 474.484 330.395 474.77 330.721 474.998C331.053 475.226 331.427 475.395 331.844 475.506C332.267 475.61 332.706 475.662 333.162 475.662C333.82 475.662 334.376 475.571 334.832 475.389C335.288 475.206 335.633 474.946 335.867 474.607C336.108 474.269 336.229 473.868 336.229 473.406ZM344.637 477.195C343.901 477.195 343.234 477.072 342.635 476.824C342.042 476.57 341.531 476.215 341.102 475.76C340.678 475.304 340.353 474.764 340.125 474.139C339.897 473.514 339.783 472.83 339.783 472.088V471.678C339.783 470.818 339.91 470.053 340.164 469.383C340.418 468.706 340.763 468.133 341.199 467.664C341.635 467.195 342.13 466.84 342.684 466.6C343.237 466.359 343.81 466.238 344.402 466.238C345.158 466.238 345.809 466.368 346.355 466.629C346.909 466.889 347.361 467.254 347.713 467.723C348.064 468.185 348.325 468.732 348.494 469.363C348.663 469.988 348.748 470.672 348.748 471.414V472.225H340.857V470.75H346.941V470.613C346.915 470.145 346.818 469.689 346.648 469.246C346.486 468.803 346.225 468.439 345.867 468.152C345.509 467.866 345.021 467.723 344.402 467.723C343.992 467.723 343.615 467.811 343.27 467.986C342.924 468.156 342.628 468.41 342.381 468.748C342.133 469.087 341.941 469.5 341.805 469.988C341.668 470.477 341.6 471.04 341.6 471.678V472.088C341.6 472.589 341.668 473.061 341.805 473.504C341.948 473.94 342.153 474.324 342.42 474.656C342.693 474.988 343.022 475.249 343.406 475.438C343.797 475.626 344.24 475.721 344.734 475.721C345.372 475.721 345.913 475.59 346.355 475.33C346.798 475.07 347.186 474.721 347.518 474.285L348.611 475.154C348.383 475.499 348.094 475.828 347.742 476.141C347.391 476.453 346.958 476.707 346.443 476.902C345.936 477.098 345.333 477.195 344.637 477.195ZM352.664 468.689V477H350.857V466.434H352.566L352.664 468.689ZM352.234 471.316L351.482 471.287C351.489 470.564 351.596 469.897 351.805 469.285C352.013 468.667 352.306 468.13 352.684 467.674C353.061 467.218 353.51 466.867 354.031 466.619C354.559 466.365 355.141 466.238 355.779 466.238C356.3 466.238 356.769 466.31 357.186 466.453C357.602 466.59 357.957 466.811 358.25 467.117C358.549 467.423 358.777 467.82 358.934 468.309C359.09 468.79 359.168 469.38 359.168 470.076V477H357.352V470.057C357.352 469.503 357.27 469.061 357.107 468.729C356.945 468.39 356.707 468.146 356.395 467.996C356.082 467.84 355.698 467.762 355.242 467.762C354.793 467.762 354.383 467.856 354.012 468.045C353.647 468.234 353.331 468.494 353.064 468.826C352.804 469.158 352.599 469.539 352.449 469.969C352.306 470.392 352.234 470.841 352.234 471.316ZM363.719 462V477H361.912V462H363.719ZM363.289 471.316L362.537 471.287C362.544 470.564 362.651 469.897 362.859 469.285C363.068 468.667 363.361 468.13 363.738 467.674C364.116 467.218 364.565 466.867 365.086 466.619C365.613 466.365 366.196 466.238 366.834 466.238C367.355 466.238 367.824 466.31 368.24 466.453C368.657 466.59 369.012 466.811 369.305 467.117C369.604 467.423 369.832 467.82 369.988 468.309C370.145 468.79 370.223 469.38 370.223 470.076V477H368.406V470.057C368.406 469.503 368.325 469.061 368.162 468.729C367.999 468.39 367.762 468.146 367.449 467.996C367.137 467.84 366.753 467.762 366.297 467.762C365.848 467.762 365.438 467.856 365.066 468.045C364.702 468.234 364.386 468.494 364.119 468.826C363.859 469.158 363.654 469.539 363.504 469.969C363.361 470.392 363.289 470.841 363.289 471.316ZM379.158 475.193V469.754C379.158 469.337 379.074 468.976 378.904 468.67C378.742 468.357 378.494 468.117 378.162 467.947C377.83 467.778 377.42 467.693 376.932 467.693C376.476 467.693 376.076 467.771 375.73 467.928C375.392 468.084 375.125 468.289 374.93 468.543C374.741 468.797 374.646 469.07 374.646 469.363H372.84C372.84 468.986 372.938 468.611 373.133 468.24C373.328 467.869 373.608 467.534 373.973 467.234C374.344 466.928 374.786 466.688 375.301 466.512C375.822 466.329 376.401 466.238 377.039 466.238C377.807 466.238 378.484 466.368 379.07 466.629C379.663 466.889 380.125 467.283 380.457 467.811C380.796 468.331 380.965 468.986 380.965 469.773V474.695C380.965 475.047 380.994 475.421 381.053 475.818C381.118 476.215 381.212 476.557 381.336 476.844V477H379.451C379.36 476.792 379.288 476.515 379.236 476.17C379.184 475.818 379.158 475.493 379.158 475.193ZM379.471 470.594L379.49 471.863H377.664C377.15 471.863 376.691 471.906 376.287 471.99C375.883 472.068 375.545 472.189 375.271 472.352C374.998 472.514 374.79 472.719 374.646 472.967C374.503 473.208 374.432 473.491 374.432 473.816C374.432 474.148 374.507 474.451 374.656 474.725C374.806 474.998 375.031 475.216 375.33 475.379C375.636 475.535 376.01 475.613 376.453 475.613C377.007 475.613 377.495 475.496 377.918 475.262C378.341 475.027 378.676 474.741 378.924 474.402C379.178 474.064 379.314 473.735 379.334 473.416L380.105 474.285C380.06 474.559 379.936 474.861 379.734 475.193C379.533 475.525 379.262 475.844 378.924 476.15C378.592 476.45 378.195 476.701 377.732 476.902C377.277 477.098 376.762 477.195 376.189 477.195C375.473 477.195 374.845 477.055 374.305 476.775C373.771 476.495 373.354 476.121 373.055 475.652C372.762 475.177 372.615 474.646 372.615 474.061C372.615 473.494 372.726 472.996 372.947 472.566C373.169 472.13 373.488 471.769 373.904 471.482C374.321 471.189 374.822 470.968 375.408 470.818C375.994 470.669 376.648 470.594 377.371 470.594H379.471ZM383.729 476.043C383.729 475.737 383.823 475.48 384.012 475.271C384.207 475.057 384.487 474.949 384.852 474.949C385.216 474.949 385.493 475.057 385.682 475.271C385.877 475.48 385.975 475.737 385.975 476.043C385.975 476.342 385.877 476.596 385.682 476.805C385.493 477.013 385.216 477.117 384.852 477.117C384.487 477.117 384.207 477.013 384.012 476.805C383.823 476.596 383.729 476.342 383.729 476.043ZM383.738 467.42C383.738 467.114 383.833 466.857 384.021 466.648C384.217 466.434 384.497 466.326 384.861 466.326C385.226 466.326 385.503 466.434 385.691 466.648C385.887 466.857 385.984 467.114 385.984 467.42C385.984 467.719 385.887 467.973 385.691 468.182C385.503 468.39 385.226 468.494 384.861 468.494C384.497 468.494 384.217 468.39 384.021 468.182C383.833 467.973 383.738 467.719 383.738 467.42Z" fill="black"/>
<g filter="url(#filter1_bd_176_993)">
<rect width="779" height="55" rx="27.5" transform="matrix(1 0 0 -1 327 437)" fill="url(#paint1_linear_176_993)" shape-rendering="crispEdges"/>
</g>
<path d="M337.684 380.467V382H330.154V380.467H337.684ZM330.535 367.781V382H328.65V367.781H330.535ZM336.688 373.895V375.428H330.154V373.895H336.688ZM337.586 367.781V369.324H330.154V367.781H337.586ZM341.541 373.533V382H339.725V371.434H341.443L341.541 373.533ZM341.17 376.316L340.33 376.287C340.337 375.564 340.431 374.897 340.613 374.285C340.796 373.667 341.066 373.13 341.424 372.674C341.782 372.218 342.228 371.867 342.762 371.619C343.296 371.365 343.914 371.238 344.617 371.238C345.112 371.238 345.568 371.31 345.984 371.453C346.401 371.59 346.762 371.808 347.068 372.107C347.374 372.407 347.612 372.791 347.781 373.26C347.951 373.729 348.035 374.295 348.035 374.959V382H346.229V375.047C346.229 374.493 346.134 374.051 345.945 373.719C345.763 373.387 345.503 373.146 345.164 372.996C344.826 372.84 344.428 372.762 343.973 372.762C343.439 372.762 342.993 372.856 342.635 373.045C342.277 373.234 341.99 373.494 341.775 373.826C341.561 374.158 341.404 374.539 341.307 374.969C341.215 375.392 341.17 375.841 341.17 376.316ZM348.016 375.32L346.805 375.691C346.811 375.112 346.906 374.555 347.088 374.021C347.277 373.488 347.547 373.012 347.898 372.596C348.257 372.179 348.696 371.85 349.217 371.609C349.738 371.362 350.333 371.238 351.004 371.238C351.57 371.238 352.072 371.313 352.508 371.463C352.951 371.613 353.322 371.844 353.621 372.156C353.927 372.462 354.158 372.856 354.314 373.338C354.471 373.82 354.549 374.393 354.549 375.057V382H352.732V375.037C352.732 374.445 352.638 373.986 352.449 373.66C352.267 373.328 352.007 373.097 351.668 372.967C351.336 372.83 350.939 372.762 350.477 372.762C350.079 372.762 349.728 372.83 349.422 372.967C349.116 373.104 348.859 373.292 348.65 373.533C348.442 373.768 348.283 374.038 348.172 374.344C348.068 374.65 348.016 374.975 348.016 375.32ZM363.514 380.193V374.754C363.514 374.337 363.429 373.976 363.26 373.67C363.097 373.357 362.85 373.117 362.518 372.947C362.186 372.778 361.775 372.693 361.287 372.693C360.831 372.693 360.431 372.771 360.086 372.928C359.747 373.084 359.48 373.289 359.285 373.543C359.096 373.797 359.002 374.07 359.002 374.363H357.195C357.195 373.986 357.293 373.611 357.488 373.24C357.684 372.869 357.964 372.534 358.328 372.234C358.699 371.928 359.142 371.688 359.656 371.512C360.177 371.329 360.757 371.238 361.395 371.238C362.163 371.238 362.84 371.368 363.426 371.629C364.018 371.889 364.48 372.283 364.812 372.811C365.151 373.331 365.32 373.986 365.32 374.773V379.695C365.32 380.047 365.35 380.421 365.408 380.818C365.473 381.215 365.568 381.557 365.691 381.844V382H363.807C363.715 381.792 363.644 381.515 363.592 381.17C363.54 380.818 363.514 380.493 363.514 380.193ZM363.826 375.594L363.846 376.863H362.02C361.505 376.863 361.046 376.906 360.643 376.99C360.239 377.068 359.9 377.189 359.627 377.352C359.354 377.514 359.145 377.719 359.002 377.967C358.859 378.208 358.787 378.491 358.787 378.816C358.787 379.148 358.862 379.451 359.012 379.725C359.161 379.998 359.386 380.216 359.686 380.379C359.992 380.535 360.366 380.613 360.809 380.613C361.362 380.613 361.85 380.496 362.273 380.262C362.697 380.027 363.032 379.741 363.279 379.402C363.533 379.064 363.67 378.735 363.689 378.416L364.461 379.285C364.415 379.559 364.292 379.861 364.09 380.193C363.888 380.525 363.618 380.844 363.279 381.15C362.947 381.45 362.55 381.701 362.088 381.902C361.632 382.098 361.118 382.195 360.545 382.195C359.829 382.195 359.201 382.055 358.66 381.775C358.126 381.495 357.71 381.121 357.41 380.652C357.117 380.177 356.971 379.646 356.971 379.061C356.971 378.494 357.081 377.996 357.303 377.566C357.524 377.13 357.843 376.769 358.26 376.482C358.676 376.189 359.178 375.968 359.764 375.818C360.35 375.669 361.004 375.594 361.727 375.594H363.826ZM370.125 371.434V382H368.309V371.434H370.125ZM368.172 368.631C368.172 368.338 368.26 368.09 368.436 367.889C368.618 367.687 368.885 367.586 369.236 367.586C369.581 367.586 369.845 367.687 370.027 367.889C370.216 368.09 370.311 368.338 370.311 368.631C370.311 368.911 370.216 369.152 370.027 369.354C369.845 369.549 369.581 369.646 369.236 369.646C368.885 369.646 368.618 369.549 368.436 369.354C368.26 369.152 368.172 368.911 368.172 368.631ZM374.988 367V382H373.172V367H374.988ZM377.811 381.043C377.811 380.737 377.905 380.48 378.094 380.271C378.289 380.057 378.569 379.949 378.934 379.949C379.298 379.949 379.575 380.057 379.764 380.271C379.959 380.48 380.057 380.737 380.057 381.043C380.057 381.342 379.959 381.596 379.764 381.805C379.575 382.013 379.298 382.117 378.934 382.117C378.569 382.117 378.289 382.013 378.094 381.805C377.905 381.596 377.811 381.342 377.811 381.043ZM377.82 372.42C377.82 372.114 377.915 371.857 378.104 371.648C378.299 371.434 378.579 371.326 378.943 371.326C379.308 371.326 379.585 371.434 379.773 371.648C379.969 371.857 380.066 372.114 380.066 372.42C380.066 372.719 379.969 372.973 379.773 373.182C379.585 373.39 379.308 373.494 378.943 373.494C378.579 373.494 378.299 373.39 378.104 373.182C377.915 372.973 377.82 372.719 377.82 372.42Z" fill="black"/>
<path d="M159.441 97.36C159.947 94.5067 161.014 92.4 162.641 91.04C164.267 89.68 166.547 89 169.481 89H179.721L179.321 91.32H169.681C167.547 91.32 165.881 91.8133 164.681 92.8C163.481 93.76 162.694 95.28 162.321 97.36L161.361 102.64H175.281L174.881 104.96H160.961L158.841 117H155.961L159.441 97.36ZM181.888 117.44C181.274 116.987 180.821 116.52 180.528 116.04C180.234 115.56 180.088 115.027 180.088 114.44C180.088 114.253 180.114 113.947 180.168 113.52L184.008 91.84C184.034 91.68 184.048 91.48 184.048 91.24C184.048 90.9467 183.981 90.68 183.848 90.44C183.741 90.2 183.528 89.92 183.208 89.6L185.008 88C185.621 88.4533 186.061 88.92 186.328 89.4C186.594 89.8533 186.728 90.3733 186.728 90.96C186.728 91.36 186.701 91.68 186.648 91.92L182.848 113.6C182.821 113.733 182.808 113.92 182.808 114.16C182.808 114.48 182.874 114.76 183.008 115C183.141 115.24 183.368 115.52 183.688 115.84L181.888 117.44ZM196.34 117.44C193.993 117.44 192.207 116.92 190.98 115.88C189.78 114.813 189.18 113.4 189.18 111.64C189.18 111.16 189.22 110.68 189.3 110.2L190.22 105C190.62 102.76 191.553 101 193.02 99.72C194.513 98.4133 196.58 97.76 199.22 97.76C201.54 97.76 203.287 98.2933 204.46 99.36C205.633 100.4 206.22 101.787 206.22 103.52C206.22 103.973 206.18 104.467 206.1 105L205.18 110.2C204.807 112.413 203.887 114.173 202.42 115.48C200.98 116.787 198.953 117.44 196.34 117.44ZM196.34 115.28C198.127 115.28 199.527 114.813 200.54 113.88C201.58 112.92 202.233 111.693 202.5 110.2L203.42 105C203.5 104.6 203.54 104.2 203.54 103.8C203.54 102.627 203.167 101.693 202.42 101C201.7 100.28 200.567 99.92 199.02 99.92C197.233 99.92 195.833 100.387 194.82 101.32C193.807 102.253 193.167 103.48 192.9 105L191.98 110.2C191.9 110.6 191.86 111 191.86 111.4C191.86 112.6 192.22 113.547 192.94 114.24C193.66 114.933 194.793 115.28 196.34 115.28ZM221.528 97.76C222.034 97.76 222.554 97.8267 223.088 97.96C223.648 98.0667 224.088 98.24 224.408 98.48L223.248 100.92C222.554 100.467 221.741 100.24 220.808 100.24C219.288 100.24 217.954 100.907 216.808 102.24C215.688 103.547 214.768 105.16 214.048 107.08L212.288 117H209.608L212.328 101.6C212.354 101.467 212.368 101.293 212.368 101.08C212.368 100.76 212.301 100.467 212.168 100.2C212.034 99.9333 211.808 99.64 211.488 99.32L213.328 97.76C213.968 98.1333 214.421 98.5467 214.688 99C214.981 99.4267 215.128 99.9467 215.128 100.56C215.128 100.907 215.088 101.28 215.008 101.68L214.848 102.56C215.648 101.067 216.581 99.8933 217.648 99.04C218.741 98.1867 220.034 97.76 221.528 97.76ZM230.755 93.96C230.301 93.96 229.928 93.8133 229.635 93.52C229.341 93.2267 229.195 92.8533 229.195 92.4C229.195 91.84 229.421 91.3467 229.875 90.92C230.328 90.4667 230.848 90.24 231.435 90.24C231.861 90.24 232.221 90.3867 232.515 90.68C232.808 90.9733 232.955 91.3333 232.955 91.76C232.955 92.32 232.728 92.8267 232.275 93.28C231.821 93.7333 231.315 93.96 230.755 93.96ZM227.675 117.44C227.061 116.987 226.608 116.52 226.315 116.04C226.021 115.56 225.875 115.013 225.875 114.4C225.875 114.24 225.901 113.947 225.955 113.52L228.675 98.2H231.355L228.635 113.6C228.608 113.733 228.595 113.92 228.595 114.16C228.595 114.48 228.661 114.76 228.795 115C228.928 115.24 229.155 115.52 229.475 115.84L227.675 117.44ZM247.041 97.76C249.174 97.76 250.854 98.4133 252.081 99.72C253.334 101.027 253.961 102.8 253.961 105.04C253.961 105.707 253.908 106.347 253.801 106.96L253.601 108.24C253.174 110.827 252.148 113.013 250.521 114.8C248.921 116.56 246.814 117.44 244.201 117.44C242.734 117.44 241.481 117.173 240.441 116.64C239.401 116.107 238.588 115.333 238.001 114.32L236.001 125.76H233.321L237.601 101.6C237.628 101.467 237.641 101.28 237.641 101.04C237.641 100.72 237.574 100.44 237.441 100.2C237.308 99.96 237.081 99.68 236.761 99.36L238.561 97.76C239.201 98.2133 239.654 98.6933 239.921 99.2C240.214 99.68 240.348 100.24 240.321 100.88C241.068 99.92 242.001 99.16 243.121 98.6C244.268 98.04 245.574 97.76 247.041 97.76ZM251.161 106.96C251.241 106.4 251.281 105.867 251.281 105.36C251.281 103.733 250.868 102.427 250.041 101.44C249.214 100.427 248.001 99.92 246.401 99.92C244.854 99.92 243.548 100.28 242.481 101C241.414 101.72 240.534 102.8 239.841 104.24L238.641 111C239.094 113.853 240.828 115.28 243.841 115.28C245.654 115.28 247.201 114.64 248.481 113.36C249.788 112.08 250.614 110.373 250.961 108.24L251.161 106.96ZM272.308 113.6C272.254 113.92 272.228 114.12 272.228 114.2C272.228 114.52 272.294 114.8 272.428 115.04C272.561 115.253 272.801 115.52 273.148 115.84L271.348 117.44C270.148 116.587 269.561 115.547 269.588 114.32C268.761 115.307 267.748 116.08 266.548 116.64C265.374 117.173 264.041 117.44 262.548 117.44C260.708 117.44 259.281 117.027 258.268 116.2C257.254 115.347 256.748 114.213 256.748 112.8C256.748 110.72 257.441 109.187 258.828 108.2C260.214 107.187 262.174 106.533 264.708 106.24L267.908 105.88C269.241 105.747 270.134 105.52 270.588 105.2C271.041 104.853 271.321 104.24 271.428 103.36V103.48C271.508 102.307 271.161 101.4 270.388 100.76C269.641 100.093 268.614 99.76 267.308 99.76C265.761 99.76 264.548 99.9467 263.668 100.32C262.814 100.693 261.974 101.307 261.148 102.16L259.548 100.8C260.401 99.76 261.454 99 262.708 98.52C263.988 98.0133 265.521 97.76 267.308 97.76C269.414 97.76 271.068 98.2267 272.268 99.16C273.494 100.093 274.108 101.36 274.108 102.96C274.108 103.333 274.068 103.72 273.988 104.12L272.308 113.6ZM270.868 106.84C270.494 107.08 270.054 107.267 269.548 107.4C269.068 107.533 268.428 107.64 267.628 107.72L264.628 108.04C262.894 108.227 261.574 108.72 260.668 109.52C259.761 110.32 259.308 111.373 259.308 112.68C259.308 114.467 260.574 115.36 263.108 115.36C264.974 115.36 266.561 114.88 267.868 113.92C269.174 112.96 269.974 111.693 270.268 110.12L270.868 106.84ZM301.68 106.12H291.64L289.88 116.2H287.6L289.36 106.12H279.36L279.76 103.96H289.76L291.52 93.88H293.8L292.04 103.96H302.08L301.68 106.12ZM314.659 117.44C312.339 117.44 310.392 117.053 308.819 116.28C307.272 115.48 305.992 114.253 304.979 112.6L307.259 110.88C308.032 112.32 309.045 113.387 310.299 114.08C311.579 114.773 313.112 115.12 314.899 115.12C316.659 115.12 318.205 114.853 319.539 114.32C320.899 113.787 321.939 113.027 322.659 112.04C323.405 111.053 323.779 109.92 323.779 108.64C323.779 107.68 323.432 106.92 322.739 106.36C322.072 105.773 321.205 105.333 320.139 105.04C319.099 104.72 317.565 104.347 315.539 103.92C313.432 103.493 311.765 102.747 310.539 101.68C309.312 100.613 308.699 99.1733 308.699 97.36C308.699 95.6267 309.139 94.0933 310.019 92.76C310.925 91.4267 312.179 90.4 313.779 89.68C315.405 88.9333 317.299 88.56 319.459 88.56C324.152 88.56 327.205 90.0533 328.619 93.04L326.379 94.64C325.765 93.4133 324.859 92.48 323.659 91.84C322.459 91.2 321.019 90.88 319.339 90.88C317.019 90.88 315.152 91.4533 313.739 92.6C312.325 93.7467 311.619 95.2533 311.619 97.12C311.619 98.4533 312.179 99.4533 313.299 100.12C314.419 100.76 315.925 101.267 317.819 101.64C319.685 102.013 321.232 102.427 322.459 102.88C323.685 103.307 324.699 103.973 325.499 104.88C326.299 105.76 326.699 106.96 326.699 108.48C326.699 110.24 326.192 111.8 325.179 113.16C324.192 114.52 322.792 115.573 320.979 116.32C319.165 117.067 317.059 117.44 314.659 117.44ZM337.785 117.44C335.438 117.44 333.652 116.92 332.425 115.88C331.225 114.813 330.625 113.4 330.625 111.64C330.625 111.16 330.665 110.68 330.745 110.2L331.665 105C332.065 102.76 332.998 101 334.465 99.72C335.958 98.4133 338.025 97.76 340.665 97.76C342.985 97.76 344.732 98.2933 345.905 99.36C347.078 100.4 347.665 101.787 347.665 103.52C347.665 103.973 347.625 104.467 347.545 105L346.625 110.2C346.252 112.413 345.332 114.173 343.865 115.48C342.425 116.787 340.398 117.44 337.785 117.44ZM337.785 115.28C339.572 115.28 340.972 114.813 341.985 113.88C343.025 112.92 343.678 111.693 343.945 110.2L344.865 105C344.945 104.6 344.985 104.2 344.985 103.8C344.985 102.627 344.612 101.693 343.865 101C343.145 100.28 342.012 99.92 340.465 99.92C338.678 99.92 337.278 100.387 336.265 101.32C335.252 102.253 334.612 103.48 334.345 105L333.425 110.2C333.345 110.6 333.305 111 333.305 111.4C333.305 112.6 333.665 113.547 334.385 114.24C335.105 114.933 336.238 115.28 337.785 115.28ZM358.688 117.44C356.315 117.44 354.488 116.96 353.208 116C351.928 115.013 351.288 113.627 351.288 111.84C351.288 111.387 351.328 110.92 351.408 110.44L352.408 104.76C352.808 102.547 353.768 100.827 355.288 99.6C356.835 98.3733 358.795 97.76 361.168 97.76C362.875 97.76 364.328 98.0267 365.528 98.56C366.728 99.0933 367.648 99.8533 368.288 100.84L366.168 102.4C365.528 101.493 364.835 100.853 364.088 100.48C363.368 100.107 362.395 99.92 361.168 99.92C359.568 99.92 358.222 100.36 357.128 101.24C356.035 102.093 355.355 103.267 355.088 104.76L354.088 110.44C354.008 110.84 353.968 111.213 353.968 111.56C353.968 112.76 354.368 113.68 355.168 114.32C355.968 114.96 357.142 115.28 358.688 115.28C359.915 115.28 360.982 115.093 361.888 114.72C362.822 114.32 363.675 113.693 364.448 112.84L366.048 114.4C365.035 115.493 363.955 116.28 362.808 116.76C361.688 117.213 360.315 117.44 358.688 117.44ZM375.989 93.96C375.536 93.96 375.162 93.8133 374.869 93.52C374.576 93.2267 374.429 92.8533 374.429 92.4C374.429 91.84 374.656 91.3467 375.109 90.92C375.562 90.4667 376.082 90.24 376.669 90.24C377.096 90.24 377.456 90.3867 377.749 90.68C378.042 90.9733 378.189 91.3333 378.189 91.76C378.189 92.32 377.962 92.8267 377.509 93.28C377.056 93.7333 376.549 93.96 375.989 93.96ZM372.909 117.44C372.296 116.987 371.842 116.52 371.549 116.04C371.256 115.56 371.109 115.013 371.109 114.4C371.109 114.24 371.136 113.947 371.189 113.52L373.909 98.2H376.589L373.869 113.6C373.842 113.733 373.829 113.92 373.829 114.16C373.829 114.48 373.896 114.76 374.029 115C374.162 115.24 374.389 115.52 374.709 115.84L372.909 117.44ZM395.315 113.6C395.262 113.92 395.235 114.12 395.235 114.2C395.235 114.52 395.302 114.8 395.435 115.04C395.569 115.253 395.809 115.52 396.155 115.84L394.355 117.44C393.155 116.587 392.569 115.547 392.595 114.32C391.769 115.307 390.755 116.08 389.555 116.64C388.382 117.173 387.049 117.44 385.555 117.44C383.715 117.44 382.289 117.027 381.275 116.2C380.262 115.347 379.755 114.213 379.755 112.8C379.755 110.72 380.449 109.187 381.835 108.2C383.222 107.187 385.182 106.533 387.715 106.24L390.915 105.88C392.249 105.747 393.142 105.52 393.595 105.2C394.049 104.853 394.329 104.24 394.435 103.36V103.48C394.515 102.307 394.169 101.4 393.395 100.76C392.649 100.093 391.622 99.76 390.315 99.76C388.769 99.76 387.555 99.9467 386.675 100.32C385.822 100.693 384.982 101.307 384.155 102.16L382.555 100.8C383.409 99.76 384.462 99 385.715 98.52C386.995 98.0133 388.529 97.76 390.315 97.76C392.422 97.76 394.075 98.2267 395.275 99.16C396.502 100.093 397.115 101.36 397.115 102.96C397.115 103.333 397.075 103.72 396.995 104.12L395.315 113.6ZM393.875 106.84C393.502 107.08 393.062 107.267 392.555 107.4C392.075 107.533 391.435 107.64 390.635 107.72L387.635 108.04C385.902 108.227 384.582 108.72 383.675 109.52C382.769 110.32 382.315 111.373 382.315 112.68C382.315 114.467 383.582 115.36 386.115 115.36C387.982 115.36 389.569 114.88 390.875 113.92C392.182 112.96 392.982 111.693 393.275 110.12L393.875 106.84ZM402.747 117.44C402.134 116.987 401.68 116.52 401.387 116.04C401.094 115.56 400.947 115.027 400.947 114.44C400.947 114.253 400.974 113.947 401.027 113.52L404.867 91.84C404.894 91.68 404.907 91.48 404.907 91.24C404.907 90.9467 404.84 90.68 404.707 90.44C404.6 90.2 404.387 89.92 404.067 89.6L405.867 88C406.48 88.4533 406.92 88.92 407.187 89.4C407.454 89.8533 407.587 90.3733 407.587 90.96C407.587 91.36 407.56 91.68 407.507 91.92L403.707 113.6C403.68 113.733 403.667 113.92 403.667 114.16C403.667 114.48 403.734 114.76 403.867 115C404 115.24 404.227 115.52 404.547 115.84L402.747 117.44Z" fill="black"/>
<path d="M95.5 75C80.8587 75 69 86.8587 69 101.5C69 116.141 80.8587 128 95.5 128C110.141 128 122 116.141 122 101.5C122 86.8587 110.141 75 95.5 75ZM95.5 81.625C97.6863 81.625 99.74 82.2213 101.728 82.8838C100.336 84.2088 98.7463 85.4012 99.0113 86.5938C99.2763 87.7863 103.583 87.455 103.583 89.9062C103.583 91.695 100.8 92.225 102.721 94.2788C105.04 96.5975 98.4812 100.771 98.3487 103.819C98.15 109.318 103.914 110.245 108.485 110.245C111.268 110.245 111.996 111.57 111.798 113.16C108.22 118.261 102.125 121.441 95.4338 121.441C92.9163 121.441 90.5975 120.845 88.4113 119.984C89.8687 117.069 86.5562 111.305 83.4425 109.45C81.9188 107.926 78.6725 108.522 76.8175 107.794C76.2212 106.005 75.625 104.216 75.5588 102.229C75.7575 101.898 76.0887 101.632 76.6187 101.632C77.8775 101.632 79.6 104.15 80.5275 103.885C81.72 103.62 75.625 95.2062 78.4738 93.55C79.7987 92.755 82.4487 96.1338 81.5875 92.49C80.7925 89.1113 83.9725 90.635 85.96 89.7738C87.6825 89.045 88.9412 87.0575 86.8213 85.865C86.4237 85.6663 85.96 85.2025 85.3638 84.6063C88.345 82.8175 91.79 81.6912 95.5 81.6912V81.625ZM110.804 88.8462C111.996 90.3037 112.924 91.8937 113.719 93.6162V93.815C113.454 94.2787 112.99 94.5437 112.261 95.2725C110.406 97.1275 110.141 93.8813 109.346 93.2188C108.485 92.4237 105.371 93.3512 104.974 92.3575C104.51 91.165 108.286 89.575 110.804 88.8462Z" fill="black"/>
<g filter="url(#filter2_d_176_993)">
<rect width="304.248" height="53.0001" rx="26.5001" transform="matrix(1 0 0 -1 551 641)" fill="#2C9C22"/>
</g>
<path d="M681.323 618.777V621H671.014V618.777H681.323ZM671.552 600.383V621H668.819V600.383H671.552ZM683.362 613.509V613.184C683.362 612.079 683.522 611.055 683.843 610.111C684.164 609.157 684.627 608.331 685.231 607.633C685.835 606.925 686.567 606.377 687.426 605.99C688.285 605.594 689.248 605.396 690.314 605.396C691.39 605.396 692.358 605.594 693.217 605.99C694.086 606.377 694.822 606.925 695.426 607.633C696.04 608.331 696.507 609.157 696.828 610.111C697.149 611.055 697.309 612.079 697.309 613.184V613.509C697.309 614.614 697.149 615.638 696.828 616.582C696.507 617.526 696.04 618.352 695.426 619.06C694.822 619.759 694.09 620.306 693.231 620.703C692.382 621.09 691.419 621.283 690.343 621.283C689.266 621.283 688.299 621.09 687.44 620.703C686.581 620.306 685.844 619.759 685.231 619.06C684.627 618.352 684.164 617.526 683.843 616.582C683.522 615.638 683.362 614.614 683.362 613.509ZM685.981 613.184V613.509C685.981 614.274 686.071 614.996 686.25 615.676C686.43 616.346 686.699 616.941 687.057 617.46C687.426 617.979 687.883 618.39 688.431 618.692C688.979 618.985 689.616 619.131 690.343 619.131C691.06 619.131 691.688 618.985 692.226 618.692C692.773 618.39 693.227 617.979 693.585 617.46C693.944 616.941 694.213 616.346 694.392 615.676C694.581 614.996 694.676 614.274 694.676 613.509V613.184C694.676 612.428 694.581 611.716 694.392 611.045C694.213 610.366 693.939 609.766 693.571 609.247C693.212 608.718 692.759 608.303 692.212 608.001C691.674 607.699 691.041 607.548 690.314 607.548C689.597 607.548 688.964 607.699 688.417 608.001C687.879 608.303 687.426 608.718 687.057 609.247C686.699 609.766 686.43 610.366 686.25 611.045C686.071 611.716 685.981 612.428 685.981 613.184ZM710.521 605.679H712.9V620.674C712.9 622.024 712.626 623.176 712.078 624.129C711.531 625.083 710.766 625.805 709.785 626.296C708.812 626.796 707.689 627.046 706.414 627.046C705.886 627.046 705.263 626.961 704.545 626.792C703.837 626.631 703.139 626.353 702.45 625.956C701.77 625.569 701.199 625.045 700.736 624.384L702.11 622.827C702.752 623.601 703.422 624.139 704.12 624.441C704.828 624.743 705.527 624.894 706.216 624.894C707.047 624.894 707.764 624.738 708.368 624.427C708.973 624.115 709.44 623.653 709.77 623.039C710.11 622.435 710.28 621.689 710.28 620.802V609.049L710.521 605.679ZM699.972 613.509V613.212C699.972 612.041 700.108 610.979 700.382 610.026C700.665 609.063 701.067 608.237 701.586 607.548C702.114 606.859 702.752 606.33 703.497 605.962C704.243 605.584 705.083 605.396 706.018 605.396C706.981 605.396 707.821 605.565 708.538 605.905C709.265 606.236 709.879 606.722 710.379 607.364C710.889 607.996 711.29 608.761 711.583 609.658C711.875 610.555 712.078 611.569 712.192 612.702V614.005C712.088 615.128 711.885 616.138 711.583 617.035C711.29 617.932 710.889 618.697 710.379 619.329C709.879 619.962 709.265 620.448 708.538 620.788C707.812 621.118 706.962 621.283 705.99 621.283C705.074 621.283 704.243 621.09 703.497 620.703C702.761 620.316 702.129 619.773 701.6 619.074C701.071 618.376 700.665 617.554 700.382 616.61C700.108 615.657 699.972 614.623 699.972 613.509ZM702.591 613.212V613.509C702.591 614.274 702.667 614.991 702.818 615.662C702.978 616.332 703.219 616.922 703.54 617.432C703.87 617.941 704.29 618.343 704.8 618.635C705.31 618.918 705.919 619.06 706.627 619.06C707.495 619.06 708.213 618.876 708.779 618.508C709.346 618.14 709.794 617.653 710.124 617.049C710.464 616.445 710.729 615.789 710.917 615.081V611.668C710.813 611.149 710.653 610.649 710.436 610.167C710.228 609.677 709.954 609.242 709.615 608.865C709.284 608.478 708.874 608.171 708.383 607.944C707.892 607.718 707.316 607.604 706.655 607.604C705.938 607.604 705.319 607.756 704.8 608.058C704.29 608.35 703.87 608.756 703.54 609.275C703.219 609.785 702.978 610.38 702.818 611.06C702.667 611.73 702.591 612.447 702.591 613.212ZM719.725 605.679V621H717.091V605.679H719.725ZM716.893 601.615C716.893 601.19 717.02 600.831 717.275 600.539C717.54 600.246 717.927 600.1 718.436 600.1C718.937 600.1 719.319 600.246 719.583 600.539C719.857 600.831 719.994 601.19 719.994 601.615C719.994 602.021 719.857 602.37 719.583 602.663C719.319 602.946 718.937 603.087 718.436 603.087C717.927 603.087 717.54 602.946 717.275 602.663C717.02 602.37 716.893 602.021 716.893 601.615ZM726.55 608.95V621H723.93V605.679H726.409L726.55 608.95ZM725.927 612.759L724.837 612.716C724.846 611.668 725.002 610.701 725.304 609.813C725.606 608.917 726.031 608.138 726.578 607.477C727.126 606.816 727.777 606.306 728.533 605.948C729.297 605.58 730.142 605.396 731.067 605.396C731.822 605.396 732.502 605.499 733.106 605.707C733.71 605.905 734.225 606.226 734.65 606.67C735.084 607.114 735.414 607.689 735.641 608.397C735.868 609.096 735.981 609.95 735.981 610.96V621H733.347V610.932C733.347 610.13 733.229 609.488 732.993 609.006C732.757 608.515 732.412 608.161 731.959 607.944C731.506 607.718 730.949 607.604 730.288 607.604C729.637 607.604 729.042 607.741 728.504 608.015C727.976 608.289 727.518 608.667 727.131 609.148C726.753 609.629 726.456 610.182 726.239 610.805C726.031 611.418 725.927 612.07 725.927 612.759Z" fill="black"/>
<path d="M634.778 693.444H637.497C637.355 694.747 636.982 695.912 636.378 696.941C635.774 697.97 634.92 698.787 633.815 699.391C632.711 699.986 631.333 700.283 629.68 700.283C628.472 700.283 627.372 700.057 626.381 699.604C625.399 699.15 624.555 698.508 623.847 697.678C623.139 696.838 622.591 695.832 622.204 694.662C621.826 693.482 621.638 692.169 621.638 690.725V688.672C621.638 687.228 621.826 685.92 622.204 684.75C622.591 683.569 623.143 682.559 623.861 681.719C624.588 680.879 625.461 680.232 626.48 679.779C627.5 679.326 628.647 679.1 629.921 679.1C631.479 679.1 632.796 679.392 633.872 679.978C634.948 680.563 635.784 681.375 636.378 682.413C636.982 683.442 637.355 684.636 637.497 685.996H634.778C634.646 685.033 634.401 684.207 634.042 683.518C633.683 682.819 633.173 682.281 632.513 681.903C631.852 681.526 630.988 681.337 629.921 681.337C629.006 681.337 628.198 681.512 627.5 681.861C626.811 682.21 626.23 682.706 625.758 683.348C625.296 683.99 624.946 684.759 624.71 685.656C624.474 686.553 624.356 687.549 624.356 688.644V690.725C624.356 691.735 624.46 692.684 624.668 693.571C624.885 694.459 625.211 695.237 625.645 695.908C626.079 696.578 626.631 697.107 627.302 697.494C627.972 697.871 628.765 698.06 629.68 698.06C630.842 698.06 631.767 697.876 632.456 697.508C633.145 697.14 633.664 696.611 634.014 695.922C634.372 695.233 634.627 694.407 634.778 693.444ZM649.859 697.38V689.493C649.859 688.889 649.736 688.365 649.491 687.921C649.255 687.468 648.896 687.119 648.414 686.874C647.933 686.628 647.338 686.505 646.63 686.505C645.969 686.505 645.389 686.619 644.889 686.845C644.398 687.072 644.011 687.369 643.727 687.737C643.454 688.105 643.317 688.502 643.317 688.927H640.697C640.697 688.379 640.839 687.836 641.122 687.298C641.405 686.76 641.811 686.274 642.34 685.84C642.878 685.396 643.52 685.047 644.265 684.792C645.021 684.528 645.861 684.396 646.786 684.396C647.9 684.396 648.882 684.584 649.731 684.962C650.59 685.34 651.261 685.911 651.742 686.675C652.233 687.431 652.478 688.379 652.478 689.521V696.658C652.478 697.168 652.521 697.711 652.606 698.287C652.7 698.862 652.837 699.358 653.016 699.773V700H650.284C650.151 699.698 650.048 699.297 649.972 698.796C649.896 698.287 649.859 697.815 649.859 697.38ZM650.312 690.711L650.34 692.552H647.692C646.946 692.552 646.281 692.613 645.696 692.736C645.11 692.849 644.619 693.024 644.223 693.26C643.826 693.496 643.524 693.793 643.317 694.152C643.109 694.501 643.005 694.912 643.005 695.384C643.005 695.865 643.114 696.304 643.331 696.701C643.548 697.097 643.874 697.413 644.308 697.649C644.752 697.876 645.294 697.989 645.936 697.989C646.739 697.989 647.447 697.819 648.06 697.479C648.674 697.14 649.16 696.724 649.519 696.233C649.887 695.743 650.085 695.266 650.114 694.803L651.232 696.063C651.166 696.46 650.987 696.899 650.694 697.38C650.402 697.862 650.01 698.324 649.519 698.768C649.037 699.202 648.462 699.566 647.791 699.858C647.131 700.142 646.385 700.283 645.554 700.283C644.516 700.283 643.605 700.08 642.821 699.674C642.047 699.268 641.443 698.726 641.009 698.046C640.584 697.357 640.371 696.587 640.371 695.738C640.371 694.917 640.532 694.194 640.853 693.571C641.174 692.939 641.636 692.415 642.241 692C642.845 691.575 643.572 691.254 644.421 691.037C645.271 690.819 646.22 690.711 647.267 690.711H650.312ZM666.256 697.026V678.25H668.89V700H666.483L666.256 697.026ZM655.948 692.509V692.212C655.948 691.041 656.089 689.979 656.372 689.026C656.665 688.063 657.076 687.237 657.604 686.548C658.142 685.859 658.78 685.33 659.516 684.962C660.262 684.584 661.092 684.396 662.008 684.396C662.971 684.396 663.811 684.565 664.529 684.905C665.256 685.236 665.869 685.722 666.369 686.364C666.879 686.996 667.28 687.761 667.573 688.658C667.866 689.555 668.069 690.569 668.182 691.702V693.005C668.078 694.128 667.875 695.138 667.573 696.035C667.28 696.932 666.879 697.697 666.369 698.329C665.869 698.962 665.256 699.448 664.529 699.788C663.802 700.118 662.952 700.283 661.98 700.283C661.083 700.283 660.262 700.09 659.516 699.703C658.78 699.316 658.142 698.773 657.604 698.074C657.076 697.376 656.665 696.554 656.372 695.61C656.089 694.657 655.948 693.623 655.948 692.509ZM658.581 692.212V692.509C658.581 693.274 658.657 693.991 658.808 694.662C658.968 695.332 659.214 695.922 659.544 696.432C659.875 696.941 660.295 697.343 660.805 697.635C661.314 697.918 661.923 698.06 662.631 698.06C663.5 698.06 664.212 697.876 664.769 697.508C665.336 697.14 665.789 696.653 666.129 696.049C666.469 695.445 666.733 694.789 666.922 694.081V690.668C666.808 690.149 666.643 689.649 666.426 689.167C666.218 688.677 665.945 688.242 665.605 687.865C665.274 687.478 664.864 687.171 664.373 686.944C663.891 686.718 663.32 686.604 662.66 686.604C661.942 686.604 661.324 686.756 660.805 687.058C660.295 687.35 659.875 687.756 659.544 688.275C659.214 688.785 658.968 689.38 658.808 690.06C658.657 690.73 658.581 691.447 658.581 692.212ZM682.002 697.38V689.493C682.002 688.889 681.88 688.365 681.634 687.921C681.398 687.468 681.039 687.119 680.558 686.874C680.076 686.628 679.482 686.505 678.774 686.505C678.113 686.505 677.532 686.619 677.032 686.845C676.541 687.072 676.154 687.369 675.871 687.737C675.597 688.105 675.46 688.502 675.46 688.927H672.841C672.841 688.379 672.982 687.836 673.265 687.298C673.549 686.76 673.955 686.274 674.483 685.84C675.021 685.396 675.663 685.047 676.409 684.792C677.164 684.528 678.004 684.396 678.93 684.396C680.043 684.396 681.025 684.584 681.875 684.962C682.734 685.34 683.404 685.911 683.886 686.675C684.376 687.431 684.622 688.379 684.622 689.521V696.658C684.622 697.168 684.664 697.711 684.749 698.287C684.844 698.862 684.981 699.358 685.16 699.773V700H682.427C682.295 699.698 682.191 699.297 682.116 698.796C682.04 698.287 682.002 697.815 682.002 697.38ZM682.455 690.711L682.484 692.552H679.836C679.09 692.552 678.424 692.613 677.839 692.736C677.254 692.849 676.763 693.024 676.367 693.26C675.97 693.496 675.668 693.793 675.46 694.152C675.253 694.501 675.149 694.912 675.149 695.384C675.149 695.865 675.257 696.304 675.474 696.701C675.692 697.097 676.017 697.413 676.451 697.649C676.895 697.876 677.438 697.989 678.08 697.989C678.882 697.989 679.59 697.819 680.204 697.479C680.818 697.14 681.304 696.724 681.662 696.233C682.031 695.743 682.229 695.266 682.257 694.803L683.376 696.063C683.31 696.46 683.13 696.899 682.838 697.38C682.545 697.862 682.153 698.324 681.662 698.768C681.181 699.202 680.605 699.566 679.935 699.858C679.274 700.142 678.528 700.283 677.698 700.283C676.659 700.283 675.748 700.08 674.965 699.674C674.191 699.268 673.586 698.726 673.152 698.046C672.727 697.357 672.515 696.587 672.515 695.738C672.515 694.917 672.675 694.194 672.996 693.571C673.317 692.939 673.78 692.415 674.384 692C674.988 691.575 675.715 691.254 676.565 691.037C677.414 690.819 678.363 690.711 679.411 690.711H682.455ZM697.663 695.936C697.663 695.558 697.578 695.209 697.409 694.888C697.248 694.558 696.913 694.26 696.403 693.996C695.903 693.722 695.148 693.486 694.138 693.288C693.288 693.109 692.519 692.896 691.829 692.651C691.15 692.405 690.569 692.108 690.088 691.759C689.616 691.41 689.252 690.999 688.997 690.527C688.743 690.055 688.615 689.503 688.615 688.87C688.615 688.266 688.747 687.695 689.012 687.157C689.285 686.619 689.668 686.142 690.159 685.727C690.659 685.311 691.258 684.986 691.957 684.75C692.655 684.514 693.434 684.396 694.293 684.396C695.521 684.396 696.568 684.613 697.437 685.047C698.305 685.481 698.971 686.062 699.433 686.789C699.896 687.506 700.127 688.304 700.127 689.182H697.508C697.508 688.757 697.38 688.346 697.125 687.95C696.88 687.544 696.516 687.209 696.035 686.944C695.563 686.68 694.982 686.548 694.293 686.548C693.566 686.548 692.976 686.661 692.523 686.888C692.08 687.105 691.754 687.383 691.546 687.723C691.348 688.063 691.249 688.422 691.249 688.799C691.249 689.083 691.296 689.337 691.39 689.564C691.494 689.781 691.674 689.984 691.929 690.173C692.183 690.352 692.542 690.522 693.005 690.683C693.467 690.843 694.057 691.004 694.775 691.164C696.03 691.447 697.064 691.787 697.876 692.184C698.688 692.58 699.292 693.066 699.688 693.642C700.085 694.218 700.283 694.917 700.283 695.738C700.283 696.408 700.141 697.022 699.858 697.579C699.584 698.136 699.183 698.617 698.655 699.023C698.135 699.419 697.512 699.731 696.785 699.958C696.068 700.175 695.261 700.283 694.364 700.283C693.014 700.283 691.872 700.042 690.937 699.561C690.003 699.08 689.295 698.457 688.813 697.692C688.332 696.927 688.091 696.12 688.091 695.271H690.725C690.763 695.988 690.97 696.559 691.348 696.984C691.726 697.399 692.188 697.697 692.736 697.876C693.283 698.046 693.826 698.131 694.364 698.131C695.082 698.131 695.681 698.036 696.162 697.848C696.653 697.659 697.026 697.399 697.281 697.069C697.536 696.738 697.663 696.361 697.663 695.936ZM710.139 684.679V686.689H701.855V684.679H710.139ZM704.659 680.955H707.278V696.205C707.278 696.724 707.358 697.116 707.519 697.38C707.679 697.645 707.887 697.819 708.142 697.904C708.397 697.989 708.671 698.032 708.963 698.032C709.18 698.032 709.407 698.013 709.643 697.975C709.888 697.928 710.072 697.89 710.195 697.862L710.209 700C710.002 700.066 709.728 700.127 709.388 700.184C709.058 700.25 708.656 700.283 708.184 700.283C707.542 700.283 706.952 700.156 706.414 699.901C705.876 699.646 705.447 699.221 705.126 698.626C704.814 698.022 704.659 697.21 704.659 696.191V680.955ZM715.831 687.086V700H713.211V684.679H715.76L715.831 687.086ZM720.617 684.594L720.603 687.029C720.386 686.982 720.178 686.954 719.98 686.944C719.791 686.925 719.574 686.916 719.328 686.916C718.724 686.916 718.191 687.01 717.728 687.199C717.266 687.388 716.874 687.652 716.553 687.992C716.232 688.332 715.977 688.738 715.788 689.21C715.609 689.673 715.491 690.182 715.434 690.739L714.698 691.164C714.698 690.239 714.788 689.37 714.967 688.559C715.156 687.747 715.444 687.029 715.831 686.406C716.218 685.774 716.709 685.283 717.304 684.934C717.908 684.575 718.625 684.396 719.456 684.396C719.645 684.396 719.862 684.419 720.107 684.466C720.353 684.504 720.523 684.547 720.617 684.594ZM731.506 697.38V689.493C731.506 688.889 731.383 688.365 731.138 687.921C730.902 687.468 730.543 687.119 730.062 686.874C729.58 686.628 728.986 686.505 728.278 686.505C727.617 686.505 727.036 686.619 726.536 686.845C726.045 687.072 725.658 687.369 725.375 687.737C725.101 688.105 724.964 688.502 724.964 688.927H722.345C722.345 688.379 722.486 687.836 722.769 687.298C723.053 686.76 723.458 686.274 723.987 685.84C724.525 685.396 725.167 685.047 725.913 684.792C726.668 684.528 727.508 684.396 728.433 684.396C729.547 684.396 730.529 684.584 731.379 684.962C732.238 685.34 732.908 685.911 733.389 686.675C733.88 687.431 734.126 688.379 734.126 689.521V696.658C734.126 697.168 734.168 697.711 734.253 698.287C734.348 698.862 734.485 699.358 734.664 699.773V700H731.931C731.799 699.698 731.695 699.297 731.619 698.796C731.544 698.287 731.506 697.815 731.506 697.38ZM731.959 690.711L731.988 692.552H729.34C728.594 692.552 727.928 692.613 727.343 692.736C726.758 692.849 726.267 693.024 725.87 693.26C725.474 693.496 725.172 693.793 724.964 694.152C724.757 694.501 724.653 694.912 724.653 695.384C724.653 695.865 724.761 696.304 724.978 696.701C725.195 697.097 725.521 697.413 725.955 697.649C726.399 697.876 726.942 697.989 727.584 697.989C728.386 697.989 729.094 697.819 729.708 697.479C730.321 697.14 730.808 696.724 731.166 696.233C731.535 695.743 731.733 695.266 731.761 694.803L732.88 696.063C732.814 696.46 732.634 696.899 732.342 697.38C732.049 697.862 731.657 698.324 731.166 698.768C730.685 699.202 730.109 699.566 729.439 699.858C728.778 700.142 728.032 700.283 727.201 700.283C726.163 700.283 725.252 700.08 724.469 699.674C723.694 699.268 723.09 698.726 722.656 698.046C722.231 697.357 722.019 696.587 722.019 695.738C722.019 694.917 722.179 694.194 722.5 693.571C722.821 692.939 723.284 692.415 723.888 692C724.492 691.575 725.219 691.254 726.069 691.037C726.918 690.819 727.867 690.711 728.915 690.711H731.959ZM740.866 687.086V700H738.246V684.679H740.795L740.866 687.086ZM745.652 684.594L745.638 687.029C745.421 686.982 745.213 686.954 745.015 686.944C744.826 686.925 744.609 686.916 744.364 686.916C743.759 686.916 743.226 687.01 742.764 687.199C742.301 687.388 741.909 687.652 741.588 687.992C741.267 688.332 741.012 688.738 740.824 689.21C740.644 689.673 740.526 690.182 740.47 690.739L739.733 691.164C739.733 690.239 739.823 689.37 740.002 688.559C740.191 687.747 740.479 687.029 740.866 686.406C741.253 685.774 741.744 685.283 742.339 684.934C742.943 684.575 743.66 684.396 744.491 684.396C744.68 684.396 744.897 684.419 745.142 684.466C745.388 684.504 745.558 684.547 745.652 684.594ZM753.525 690.159V692.311H746.615V690.159H753.525ZM765.009 695.936C765.009 695.558 764.924 695.209 764.754 694.888C764.594 694.558 764.259 694.26 763.749 693.996C763.249 693.722 762.493 693.486 761.483 693.288C760.634 693.109 759.864 692.896 759.175 692.651C758.495 692.405 757.915 692.108 757.433 691.759C756.961 691.41 756.598 690.999 756.343 690.527C756.088 690.055 755.961 689.503 755.961 688.87C755.961 688.266 756.093 687.695 756.357 687.157C756.631 686.619 757.013 686.142 757.504 685.727C758.005 685.311 758.604 684.986 759.303 684.75C760.001 684.514 760.78 684.396 761.639 684.396C762.866 684.396 763.914 684.613 764.783 685.047C765.651 685.481 766.317 686.062 766.779 686.789C767.242 687.506 767.473 688.304 767.473 689.182H764.853C764.853 688.757 764.726 688.346 764.471 687.95C764.226 687.544 763.862 687.209 763.381 686.944C762.909 686.68 762.328 686.548 761.639 686.548C760.912 686.548 760.322 686.661 759.869 686.888C759.425 687.105 759.1 687.383 758.892 687.723C758.694 688.063 758.595 688.422 758.595 688.799C758.595 689.083 758.642 689.337 758.736 689.564C758.84 689.781 759.019 689.984 759.274 690.173C759.529 690.352 759.888 690.522 760.35 690.683C760.813 690.843 761.403 691.004 762.12 691.164C763.376 691.447 764.41 691.787 765.222 692.184C766.033 692.58 766.638 693.066 767.034 693.642C767.43 694.218 767.629 694.917 767.629 695.738C767.629 696.408 767.487 697.022 767.204 697.579C766.93 698.136 766.529 698.617 766 699.023C765.481 699.419 764.858 699.731 764.131 699.958C763.414 700.175 762.607 700.283 761.71 700.283C760.36 700.283 759.218 700.042 758.283 699.561C757.348 699.08 756.64 698.457 756.159 697.692C755.678 696.927 755.437 696.12 755.437 695.271H758.071C758.108 695.988 758.316 696.559 758.694 696.984C759.071 697.399 759.534 697.697 760.081 697.876C760.629 698.046 761.172 698.131 761.71 698.131C762.427 698.131 763.027 698.036 763.508 697.848C763.999 697.659 764.372 697.399 764.627 697.069C764.882 696.738 765.009 696.361 765.009 695.936ZM777.428 700.283C776.361 700.283 775.393 700.104 774.525 699.745C773.666 699.377 772.925 698.862 772.302 698.202C771.688 697.541 771.216 696.757 770.886 695.851C770.555 694.945 770.39 693.954 770.39 692.877V692.283C770.39 691.037 770.574 689.927 770.942 688.955C771.31 687.973 771.811 687.143 772.443 686.463C773.076 685.783 773.793 685.269 774.596 684.919C775.398 684.57 776.229 684.396 777.088 684.396C778.183 684.396 779.127 684.584 779.92 684.962C780.722 685.34 781.378 685.868 781.888 686.548C782.398 687.218 782.775 688.011 783.021 688.927C783.266 689.833 783.389 690.824 783.389 691.9V693.076H771.948V690.938H780.769V690.739C780.732 690.06 780.59 689.399 780.345 688.757C780.109 688.115 779.731 687.586 779.212 687.171C778.693 686.756 777.985 686.548 777.088 686.548C776.493 686.548 775.945 686.675 775.445 686.93C774.945 687.176 774.515 687.544 774.157 688.035C773.798 688.526 773.519 689.125 773.321 689.833C773.123 690.541 773.024 691.358 773.024 692.283V692.877C773.024 693.604 773.123 694.289 773.321 694.931C773.529 695.563 773.826 696.12 774.213 696.602C774.61 697.083 775.086 697.461 775.643 697.734C776.21 698.008 776.852 698.145 777.569 698.145C778.494 698.145 779.278 697.956 779.92 697.579C780.562 697.201 781.123 696.696 781.605 696.063L783.191 697.324C782.86 697.824 782.44 698.301 781.93 698.754C781.421 699.207 780.793 699.575 780.047 699.858C779.311 700.142 778.438 700.283 777.428 700.283Z" fill="black"/>
<path d="M619.938 702.832H784.451V704.248H619.938V702.832Z" fill="black"/>
<path d="M683.711 235.934V239H669.492V235.934H683.711ZM670.234 210.562V239H666.465V210.562H670.234ZM686.523 228.668V228.219C686.523 226.695 686.745 225.283 687.188 223.98C687.63 222.665 688.268 221.526 689.102 220.562C689.935 219.586 690.944 218.831 692.129 218.297C693.314 217.75 694.642 217.477 696.113 217.477C697.598 217.477 698.932 217.75 700.117 218.297C701.315 218.831 702.331 219.586 703.164 220.562C704.01 221.526 704.655 222.665 705.098 223.98C705.54 225.283 705.762 226.695 705.762 228.219V228.668C705.762 230.191 705.54 231.604 705.098 232.906C704.655 234.208 704.01 235.348 703.164 236.324C702.331 237.288 701.322 238.043 700.137 238.59C698.965 239.124 697.637 239.391 696.152 239.391C694.668 239.391 693.333 239.124 692.148 238.59C690.964 238.043 689.948 237.288 689.102 236.324C688.268 235.348 687.63 234.208 687.188 232.906C686.745 231.604 686.523 230.191 686.523 228.668ZM690.137 228.219V228.668C690.137 229.723 690.26 230.719 690.508 231.656C690.755 232.581 691.126 233.401 691.621 234.117C692.129 234.833 692.76 235.4 693.516 235.816C694.271 236.22 695.15 236.422 696.152 236.422C697.142 236.422 698.008 236.22 698.75 235.816C699.505 235.4 700.13 234.833 700.625 234.117C701.12 233.401 701.491 232.581 701.738 231.656C701.999 230.719 702.129 229.723 702.129 228.668V228.219C702.129 227.177 701.999 226.194 701.738 225.27C701.491 224.332 701.113 223.505 700.605 222.789C700.111 222.06 699.486 221.487 698.73 221.07C697.988 220.654 697.116 220.445 696.113 220.445C695.124 220.445 694.251 220.654 693.496 221.07C692.754 221.487 692.129 222.06 691.621 222.789C691.126 223.505 690.755 224.332 690.508 225.27C690.26 226.194 690.137 227.177 690.137 228.219ZM723.984 217.867H727.266V238.551C727.266 240.413 726.888 242.001 726.133 243.316C725.378 244.632 724.323 245.628 722.969 246.305C721.628 246.995 720.078 247.34 718.32 247.34C717.591 247.34 716.732 247.223 715.742 246.988C714.766 246.767 713.802 246.383 712.852 245.836C711.914 245.302 711.126 244.579 710.488 243.668L712.383 241.52C713.268 242.587 714.193 243.329 715.156 243.746C716.133 244.163 717.096 244.371 718.047 244.371C719.193 244.371 720.182 244.156 721.016 243.727C721.849 243.297 722.493 242.659 722.949 241.812C723.418 240.979 723.652 239.951 723.652 238.727V222.516L723.984 217.867ZM709.434 228.668V228.258C709.434 226.643 709.622 225.178 710 223.863C710.391 222.535 710.944 221.396 711.66 220.445C712.389 219.495 713.268 218.766 714.297 218.258C715.326 217.737 716.484 217.477 717.773 217.477C719.102 217.477 720.26 217.711 721.25 218.18C722.253 218.635 723.099 219.306 723.789 220.191C724.492 221.064 725.046 222.118 725.449 223.355C725.853 224.592 726.133 225.992 726.289 227.555V229.352C726.146 230.901 725.866 232.294 725.449 233.531C725.046 234.768 724.492 235.823 723.789 236.695C723.099 237.568 722.253 238.238 721.25 238.707C720.247 239.163 719.076 239.391 717.734 239.391C716.471 239.391 715.326 239.124 714.297 238.59C713.281 238.056 712.409 237.307 711.68 236.344C710.951 235.38 710.391 234.247 710 232.945C709.622 231.63 709.434 230.204 709.434 228.668ZM713.047 228.258V228.668C713.047 229.723 713.151 230.712 713.359 231.637C713.581 232.561 713.913 233.375 714.355 234.078C714.811 234.781 715.391 235.335 716.094 235.738C716.797 236.129 717.637 236.324 718.613 236.324C719.811 236.324 720.801 236.07 721.582 235.562C722.363 235.055 722.982 234.384 723.438 233.551C723.906 232.717 724.271 231.812 724.531 230.836V226.129C724.388 225.413 724.167 224.723 723.867 224.059C723.581 223.382 723.203 222.783 722.734 222.262C722.279 221.728 721.712 221.305 721.035 220.992C720.358 220.68 719.564 220.523 718.652 220.523C717.663 220.523 716.81 220.732 716.094 221.148C715.391 221.552 714.811 222.112 714.355 222.828C713.913 223.531 713.581 224.352 713.359 225.289C713.151 226.214 713.047 227.203 713.047 228.258ZM736.68 217.867V239H733.047V217.867H736.68ZM732.773 212.262C732.773 211.676 732.949 211.181 733.301 210.777C733.665 210.374 734.199 210.172 734.902 210.172C735.592 210.172 736.12 210.374 736.484 210.777C736.862 211.181 737.051 211.676 737.051 212.262C737.051 212.822 736.862 213.303 736.484 213.707C736.12 214.098 735.592 214.293 734.902 214.293C734.199 214.293 733.665 214.098 733.301 213.707C732.949 213.303 732.773 212.822 732.773 212.262ZM746.094 222.379V239H742.48V217.867H745.898L746.094 222.379ZM745.234 227.633L743.73 227.574C743.743 226.129 743.958 224.794 744.375 223.57C744.792 222.333 745.378 221.259 746.133 220.348C746.888 219.436 747.786 218.733 748.828 218.238C749.883 217.73 751.048 217.477 752.324 217.477C753.366 217.477 754.303 217.62 755.137 217.906C755.97 218.18 756.68 218.622 757.266 219.234C757.865 219.846 758.32 220.641 758.633 221.617C758.945 222.581 759.102 223.759 759.102 225.152V239H755.469V225.113C755.469 224.007 755.306 223.121 754.98 222.457C754.655 221.78 754.18 221.292 753.555 220.992C752.93 220.68 752.161 220.523 751.25 220.523C750.352 220.523 749.531 220.712 748.789 221.09C748.06 221.467 747.428 221.988 746.895 222.652C746.374 223.316 745.964 224.078 745.664 224.938C745.378 225.784 745.234 226.682 745.234 227.633Z" fill="black"/>
<defs>
<filter id="filter0_bd_176_993" x="287" y="437" width="859" height="135" filterUnits="userSpaceOnUse" color-interpolation-filters="sRGB">
<feFlood flood-opacity="0" result="BackgroundImageFix"/>
<feGaussianBlur in="BackgroundImageFix" stdDeviation="20"/>
<feComposite in2="SourceAlpha" operator="in" result="effect1_backgroundBlur_176_993"/>
<feColorMatrix in="SourceAlpha" type="matrix" values="0 0 0 0 0 0 0 0 0 0 0 0 0 0 0 0 0 0 127 0" result="hardAlpha"/>
<feOffset dy="10"/>
<feGaussianBlur stdDeviation="10.1"/>
<feComposite in2="hardAlpha" operator="out"/>
<feColorMatrix type="matrix" values="0 0 0 0 0 0 0 0 0 0 0 0 0 0 0 0 0 0 0.3 0"/>
<feBlend mode="normal" in2="effect1_backgroundBlur_176_993" result="effect2_dropShadow_176_993"/>
<feBlend mode="normal" in="SourceGraphic" in2="effect2_dropShadow_176_993" result="shape"/>
</filter>
<filter id="filter1_bd_176_993" x="287" y="342" width="859" height="135" filterUnits="userSpaceOnUse" color-interpolation-filters="sRGB">
<feFlood flood-opacity="0" result="BackgroundImageFix"/>
<feGaussianBlur in="BackgroundImageFix" stdDeviation="20"/>
<feComposite in2="SourceAlpha" operator="in" result="effect1_backgroundBlur_176_993"/>
<feColorMatrix in="SourceAlpha" type="matrix" values="0 0 0 0 0 0 0 0 0 0 0 0 0 0 0 0 0 0 127 0" result="hardAlpha"/>
<feOffset dy="10"/>
<feGaussianBlur stdDeviation="10.1"/>
<feComposite in2="hardAlpha" operator="out"/>
<feColorMatrix type="matrix" values="0 0 0 0 0 0 0 0 0 0 0 0 0 0 0 0 0 0 0.3 0"/>
<feBlend mode="normal" in2="effect1_backgroundBlur_176_993" result="effect2_dropShadow_176_993"/>
<feBlend mode="normal" in="SourceGraphic" in2="effect2_dropShadow_176_993" result="shape"/>
</filter>
<filter id="filter2_d_176_993" x="530.8" y="577.8" width="344.648" height="93.4" filterUnits="userSpaceOnUse" color-interpolation-filters="sRGB">
<feFlood flood-opacity="0" result="BackgroundImageFix"/>
<feColorMatrix in="SourceAlpha" type="matrix" values="0 0 0 0 0 0 0 0 0 0 0 0 0 0 0 0 0 0 127 0" result="hardAlpha"/>
<feOffset dy="10"/>
<feGaussianBlur stdDeviation="10.1"/>
<feComposite in2="hardAlpha" operator="out"/>
<feColorMatrix type="matrix" values="0 0 0 0 0 0 0 0 0 0 0 0 0 0 0 0 0 0 0.5 0"/>
<feBlend mode="normal" in2="BackgroundImageFix" result="effect1_dropShadow_176_993"/>
<feBlend mode="normal" in="SourceGraphic" in2="effect1_dropShadow_176_993" result="shape"/>
</filter>
<linearGradient id="paint0_linear_176_993" x1="423.796" y1="51.1261" x2="420.693" y2="-7.80594" gradientUnits="userSpaceOnUse">
<stop stop-color="white" stop-opacity="0.1"/>
<stop offset="1" stop-color="#408C88" stop-opacity="0.4"/>
</linearGradient>
<linearGradient id="paint1_linear_176_993" x1="423.796" y1="51.1261" x2="420.693" y2="-7.80594" gradientUnits="userSpaceOnUse">
<stop stop-color="white" stop-opacity="0.1"/>
<stop offset="1" stop-color="#408C88" stop-opacity="0.4"/>
</linearGradient>
</defs>
</svg>
